{
  "accessors": [
    {
      "bufferView": 2,
      "componentType": 5126,
      "count": 65532,
      "max": [
        45.893398284912109,
        74.702499389648438,
        89.243797302246094
      ],
      "min": [
        -80.446098327636719,
        -158.18299865722656,
        -86.375701904296875
      ],
      "type": "VEC3"
    },
    {
      "bufferView": 2,
      "byteOffset": 786384,
      "componentType": 5126,
      "count": 65532,
      "max": [
        0.99999010562896729,
        0.99982362985610962,
        0.99992424249649048
      ],
      "min": [
        -0.99991637468338013,
        -0.99995511770248413,
        -0.99998098611831665
      ],
      "type": "VEC3"
    },
    {
      "bufferView": 3,
      "componentType": 5126,
      "count": 65532,
      "max": [
        0.99920070171356201,
        0.99968600273132324,
        0.99831473827362061,
        1
      ],
      "min": [
        -0.94426697492599487,
        -0.99649804830551147,
        -0.98655176162719727,
        -1
      ],
      "type": "VEC4"
    },
    {
      "bufferView": 1,
      "componentType": 5126,
      "count": 65532,
      "max": [
        0.91734999418258667,
        0.99711298942565918
      ],
      "min": [
        0.002270770026370883,
        0.012014700099825859
      ],
      "type": "VEC2"
    },
    {
      "bufferView": 0,
      "componentType": 5125,
      "count": 340104,
      "max": [
        65531
      ],
      "min": [
        0
      ],
      "type": "SCALAR"
    },
    {
      "bufferView": 2,
      "byteOffset": 1572768,
      "componentType": 5126,
      "count": 65532,
      "max": [
        77.070899963378906,
        85.904899597167969,
        89.419898986816406
      ],
      "min": [
        -80.090896606445312,
        -145.61900329589844,
        -87.341201782226562
      ],
      "type": "VEC3"
    },
    {
      "bufferView": 2,
      "byteOffset": 2359152,
      "componentType": 5126,
      "count": 65532,
      "max": [
        0.99998366832733154,
        0.99999725818634033,
        0.99998676776885986
      ],
      "min": [
        -0.99988609552383423,
        -0.99985355138778687,
        -0.99986135959625244
      ],
      "type": "VEC3"
    },
    {
      "bufferView": 3,
      "byteOffset": 1048512,
      "componentType": 5126,
      "count": 65532,
      "max": [
        0.9979088306427002,
        0.99996459484100342,
        0.99803483486175537,
        1
      ],
      "min": [
        -0.99967277050018311,
        -0.9999384880065918,
        -0.99977493286132812,
        -1
      ],
      "type": "VEC4"
    },
    {
      "bufferView": 1,
      "byteOffset": 524256,
      "componentType": 5126,
      "count": 65532,
      "max": [
        0.9971269965171814,
        0.99744999408721924
      ],
      "min": [
        0.0006483200122602284,
        0.00051909702597185969
      ],
      "type": "VEC2"
    },
    {
      "bufferView": 0,
      "byteOffset": 1360416,
      "componentType": 5125,
      "count": 320859,
      "max": [
        65531
      ],
      "min": [
        0
      ],
      "type": "SCALAR"
    },
    {
      "bufferView": 2,
      "byteOffset": 3145536,
      "componentType": 5126,
      "count": 61165,
      "max": [
        76.921897888183594,
        85.898399353027344,
        74.92669677734375
      ],
      "min": [
        -79.733802795410156,
        -157.32899475097656,
        -87.224899291992188
      ],
      "type": "VEC3"
    },
    {
      "bufferView": 2,
      "byteOffset": 3879516,
      "componentType": 5126,
      "count": 61165,
      "max": [
        0.99996376037597656,
        0.99999898672103882,
        0.99993997812271118
      ],
      "min": [
        -0.9995153546333313,
        -0.99999624490737915,
        -0.99982821941375732
      ],
      "type": "VEC3"
    },
    {
      "bufferView": 3,
      "byteOffset": 2097024,
      "componentType": 5126,
      "count": 61165,
      "max": [
        0.99982386827468872,
        0.9994281530380249,
        0.99915647506713867,
        1
      ],
      "min": [
        -0.9888077974319458,
        -0.99814069271087646,
        -0.99967390298843384,
        -1
      ],
      "type": "VEC4"
    },
    {
      "bufferView": 1,
      "byteOffset": 1048512,
      "componentType": 5126,
      "count": 61165,
      "max": [
        0.99734598398208618,
        0.99741101264953613
      ],
      "min": [
        0.002270770026370883,
        0.00051927601452916861
      ],
      "type": "VEC2"
    },
    {
      "bufferView": 0,
      "byteOffset": 2643852,
      "componentType": 5125,
      "count": 295047,
      "max": [
        61164
      ],
      "min": [
        0
      ],
      "type": "SCALAR"
    }
  ],
  "asset": {
    "extras": {
      "author": "Auckland Museum (https://sketchfab.com/aucklandmuseum)",
      "license": "CC-BY-4.0 (http://creativecommons.org/licenses/by/4.0/)",
      "source": "https://sketchfab.com/models/8a58020139cf43bc821bfdfa01e13208",
      "title": "Little Blue Penguin / Kororā"
    },
    "generator": "Sketchfab-3.18.6",
    "version": "2.0"
  },
  "bufferViews": [
    {
      "buffer": 0,
      "byteLength": 3824040,
      "byteOffset": 0,
      "name": "floatBufferViews",
      "target": 34963
    },
    {
      "buffer": 0,
      "byteLength": 1537832,
      "byteOffset": 3824040,
      "byteStride": 8,
      "name": "floatBufferViews",
      "target": 34962
    },
    {
      "buffer": 0,
      "byteLength": 4613496,
      "byteOffset": 5361872,
      "byteStride": 12,
      "name": "floatBufferViews",
      "target": 34962
    },
    {
      "buffer": 0,
      "byteLength": 3075664,
      "byteOffset": 9975368,
      "byteStride": 16,
      "name": "floatBufferViews",
      "target": 34962
    }
  ],
  "buffers": [
    {
      "byteLength": 13051032,
      "uri": "scene.bin"
    }
  ],
  "extensionsRequired": [
    "KHR_materials_pbrSpecularGlossiness"
  ],
  "extensionsUsed": [
    "KHR_materials_pbrSpecularGlossiness"
  ],
  "images": [
    {
      "uri": "textures/material_diffuse.png"
    }
  ],
  "materials": [
    {
      "doubleSided": true,
      "extensions": {
        "KHR_materials_pbrSpecularGlossiness": {
          "diffuseFactor": [
            0.90000000000000002,
            0.90000000000000002,
            0.90000000000000002,
            1
          ],
          "diffuseTexture": {
            "index": 0,
            "texCoord": 0
          },
          "glossinessFactor": 0.31,
          "specularFactor": [
            0,
            0,
            0
          ]
        }
      },
      "name": "material"
    }
  ],
  "meshes": [
    {
      "primitives": [
        {
          "attributes": {
            "NORMAL": 1,
            "POSITION": 0,
            "TANGENT": 2,
            "TEXCOORD_0": 3
          },
          "indices": 4,
          "material": 0,
          "mode": 4
        }
      ]
    },
    {
      "primitives": [
        {
          "attributes": {
            "NORMAL": 6,
            "POSITION": 5,
            "TANGENT": 7,
            "TEXCOORD_0": 8
          },
          "indices": 9,
          "material": 0,
          "mode": 4
        }
      ]
    },
    {
      "primitives": [
        {
          "attributes": {
            "NORMAL": 11,
            "POSITION": 10,
            "TANGENT": 12,
            "TEXCOORD_0": 13
          },
          "indices": 14,
          "material": 0,
          "mode": 4
        }
      ]
    }
  ],
  "nodes": [
    {
      "children": [
        1
      ],
      "name": "RootNode (gltf orientation matrix)",
      "rotation": [
        -0.70710678118654746,
        -0,
        -0,
        0.70710678118654757
      ]
    },
    {
      "children": [
        2
      ],
      "matrix": [
        1,
        0,
        0,
        0,
        0,
        -0.097818046808242798,
        -0.99520432949066162,
        0,
        0,
        0.99520432949066162,
        -0.097818046808242798,
        0,
        0,
        -40.708427429199219,
        -34.824527740478516,
        1
      ],
      "name": "RootNode (model correction matrix)"
    },
    {
      "children": [
        3,
        4,
        5
      ],
      "name": "Blue_Penguin.obj.cleaner.gles"
    },
    {
      "mesh": 0,
      "name": ""
    },
    {
      "mesh": 1,
      "name": ""
    },
    {
      "mesh": 2,
      "name": ""
    }
  ],
  "samplers": [
    {
      "magFilter": 9729,
      "minFilter": 9987,
      "wrapS": 10497,
      "wrapT": 10497
    }
  ],
  "scene": 0,
  "scenes": [
    {
      "name": "OSG_Scene",
      "nodes": [
        0
      ]
    }
  ],
  "textures": [
    {
      "sampler": 0,
      "source": 0
    }
  ]
}

