{
  "accessors": [
    {
      "bufferView": 2,
      "componentType": 5126,
      "count": 1592,
      "max": [
        0.81688100099563599,
        -1.3665419816970825,
        -4.5819640159606934
      ],
      "min": [
        -0.50012397766113281,
        -4.1295671463012695,
        -6.3324980735778809
      ],
      "type": "VEC3"
    },
    {
      "bufferView": 2,
      "byteOffset": 19104,
      "componentType": 5126,
      "count": 1592,
      "max": [
        0.99787932634353638,
        0.99922662973403931,
        0.99860090017318726
      ],
      "min": [
        -0.99836236238479614,
        -0.99793088436126709,
        -0.99922490119934082
      ],
      "type": "VEC3"
    },
    {
      "bufferView": 3,
      "componentType": 5126,
      "count": 1592,
      "max": [
        0.9974026083946228,
        0.96309006214141846,
        0.9826512336730957,
        1
      ],
      "min": [
        -0.99986034631729126,
        -0.9998314380645752,
        -0.99218374490737915,
        1
      ],
      "type": "VEC4"
    },
    {
      "bufferView": 1,
      "componentType": 5126,
      "count": 1592,
      "max": [
        0.99110198020935059,
        0.99591702222824097
      ],
      "min": [
        0.0039059999398887157,
        0.0039059999398887157
      ],
      "type": "VEC2"
    },
    {
      "bufferView": 0,
      "componentType": 5125,
      "count": 5823,
      "max": [
        1591
      ],
      "min": [
        0
      ],
      "type": "SCALAR"
    },
    {
      "bufferView": 2,
      "byteOffset": 38208,
      "componentType": 5126,
      "count": 1717,
      "max": [
        0.83315300941467285,
        -1.3636540174484253,
        -4.4348359107971191
      ],
      "min": [
        -0.50012397766113281,
        -4.3242578506469727,
        -6.3199648857116699
      ],
      "type": "VEC3"
    },
    {
      "bufferView": 2,
      "byteOffset": 58812,
      "componentType": 5126,
      "count": 1717,
      "max": [
        0.99820405244827271,
        0.99991351366043091,
        0.99249136447906494
      ],
      "min": [
        -0.99857473373413086,
        -0.99394351243972778,
        -0.9988483190536499
      ],
      "type": "VEC3"
    },
    {
      "bufferView": 3,
      "byteOffset": 25472,
      "componentType": 5126,
      "count": 1717,
      "max": [
        0.97663062810897827,
        0.99101585149765015,
        0.99873781204223633,
        1
      ],
      "min": [
        -0.99985885620117188,
        -0.99991226196289062,
        -0.99993628263473511,
        1
      ],
      "type": "VEC4"
    },
    {
      "bufferView": 1,
      "byteOffset": 12736,
      "componentType": 5126,
      "count": 1717,
      "max": [
        0.97537201642990112,
        0.99509000778198242
      ],
      "min": [
        0.0039059999398887157,
        0.0039059999398887157
      ],
      "type": "VEC2"
    },
    {
      "bufferView": 0,
      "byteOffset": 23292,
      "componentType": 5125,
      "count": 6174,
      "max": [
        1716
      ],
      "min": [
        0
      ],
      "type": "SCALAR"
    }
  ],
  "asset": {
    "extras": {
      "author": "Troels (https://sketchfab.com/troelsbp)",
      "license": "CC-BY-4.0 (http://creativecommons.org/licenses/by/4.0/)",
      "source": "https://sketchfab.com/3d-models/atlantic-puffin-low-poly-00c3f6de0c5b494bbf2885ff99ee6b96",
      "title": "Atlantic Puffin - Low poly"
    },
    "generator": "Sketchfab-5.29.0",
    "version": "2.0"
  },
  "bufferViews": [
    {
      "buffer": 0,
      "byteLength": 47988,
      "byteOffset": 0,
      "name": "floatBufferViews",
      "target": 34963
    },
    {
      "buffer": 0,
      "byteLength": 26472,
      "byteOffset": 47988,
      "byteStride": 8,
      "name": "floatBufferViews",
      "target": 34962
    },
    {
      "buffer": 0,
      "byteLength": 79416,
      "byteOffset": 74460,
      "byteStride": 12,
      "name": "floatBufferViews",
      "target": 34962
    },
    {
      "buffer": 0,
      "byteLength": 52944,
      "byteOffset": 153876,
      "byteStride": 16,
      "name": "floatBufferViews",
      "target": 34962
    }
  ],
  "buffers": [
    {
      "byteLength": 206820,
      "uri": "scene.bin"
    }
  ],
  "extensionsUsed": [
    "KHR_materials_unlit"
  ],
  "images": [
    {
      "uri": "textures/material_0_baseColor.jpeg"
    },
    {
      "uri": "textures/material_1_baseColor.jpeg"
    }
  ],
  "materials": [
    {
      "doubleSided": true,
      "emissiveFactor": [
        0,
        0,
        0
      ],
      "extensions": {
        "KHR_materials_unlit": {}
      },
      "name": "material_0",
      "pbrMetallicRoughness": {
        "baseColorFactor": [
          1,
          1,
          1,
          1
        ],
        "baseColorTexture": {
          "index": 0,
          "texCoord": 0
        },
        "metallicFactor": 0,
        "roughnessFactor": 1
      }
    },
    {
      "doubleSided": true,
      "emissiveFactor": [
        0,
        0,
        0
      ],
      "extensions": {
        "KHR_materials_unlit": {}
      },
      "name": "material_1",
      "pbrMetallicRoughness": {
        "baseColorFactor": [
          1,
          1,
          1,
          1
        ],
        "baseColorTexture": {
          "index": 1,
          "texCoord": 0
        },
        "metallicFactor": 0,
        "roughnessFactor": 1
      }
    }
  ],
  "meshes": [
    {
      "primitives": [
        {
          "attributes": {
            "NORMAL": 1,
            "POSITION": 0,
            "TANGENT": 2,
            "TEXCOORD_0": 3
          },
          "indices": 4,
          "material": 0,
          "mode": 4
        }
      ]
    },
    {
      "primitives": [
        {
          "attributes": {
            "NORMAL": 6,
            "POSITION": 5,
            "TANGENT": 7,
            "TEXCOORD_0": 8
          },
          "indices": 9,
          "material": 1,
          "mode": 4
        }
      ]
    }
  ],
  "nodes": [
    {
      "children": [
        1
      ],
      "name": "RootNode (gltf orientation matrix)",
      "rotation": [
        -0.70710678118654746,
        -0,
        -0,
        0.70710678118654757
      ]
    },
    {
      "children": [
        2
      ],
      "matrix": [
        0.79011285305023193,
        -0.61259651184082031,
        -0.02114739827811718,
        0,
        0.026755455881357193,
        0,
        0.999642014503479,
        0,
        -0.61237722635269165,
        -0.79039579629898071,
        0.016390299424529076,
        0,
        -3.1818947792053223,
        -6.9924564361572266,
        -2.4424149990081787,
        1
      ],
      "name": "RootNode (model correction matrix)"
    },
    {
      "children": [
        3,
        4
      ],
      "name": "model.obj.cleaner.gles"
    },
    {
      "mesh": 0,
      "name": ""
    },
    {
      "mesh": 1,
      "name": ""
    }
  ],
  "samplers": [
    {
      "magFilter": 9729,
      "minFilter": 9987,
      "wrapS": 10497,
      "wrapT": 10497
    }
  ],
  "scene": 0,
  "scenes": [
    {
      "name": "OSG_Scene",
      "nodes": [
        0
      ]
    }
  ],
  "textures": [
    {
      "sampler": 0,
      "source": 0
    },
    {
      "sampler": 0,
      "source": 1
    }
  ]
}

