{
  "accessors": [
    {
      "bufferView": 2,
      "componentType": 5126,
      "count": 11361,
      "max": [
        1.4655139446258545,
        1.9258120059967041,
        3.6490399837493896
      ],
      "min": [
        -1.4655139446258545,
        -1.9258120059967041,
        -3.6490399837493896
      ],
      "type": "VEC3"
    },
    {
      "bufferView": 2,
      "byteOffset": 136332,
      "componentType": 5126,
      "count": 11361,
      "max": [
        0.99999064207077026,
        0.99996554851531982,
        0.99942702054977417
      ],
      "min": [
        -0.99991732835769653,
        -0.99972587823867798,
        -0.99969679117202759
      ],
      "type": "VEC3"
    },
    {
      "bufferView": 3,
      "componentType": 5126,
      "count": 11361,
      "max": [
        0.99992561340332031,
        0.99999809265136719,
        0.99983596801757812,
        1
      ],
      "min": [
        -0.99994450807571411,
        -0.99982708692550659,
        -0.99982529878616333,
        1
      ],
      "type": "VEC4"
    },
    {
      "bufferView": 1,
      "componentType": 5126,
      "count": 11361,
      "max": [
        0.99951201677322388,
        0.99951201677322388
      ],
      "min": [
        0.00048799999058246613,
        0.00048799999058246613
      ],
      "type": "VEC2"
    },
    {
      "bufferView": 0,
      "componentType": 5125,
      "count": 59994,
      "max": [
        11360
      ],
      "min": [
        0
      ],
      "type": "SCALAR"
    }
  ],
  "asset": {
    "extras": {
      "author": "Spogna (https://sketchfab.com/spogna)",
      "license": "CC-BY-NC-4.0 (http://creativecommons.org/licenses/by-nc/4.0/)",
      "source": "https://sketchfab.com/3d-models/plastic-elephant-ce436a509bcb42d597b897b79cc6b02e",
      "title": "Plastic Elephant"
    },
    "generator": "Sketchfab-6.98.0",
    "version": "2.0"
  },
  "bufferViews": [
    {
      "buffer": 0,
      "byteLength": 239976,
      "byteOffset": 0,
      "name": "floatBufferViews",
      "target": 34963
    },
    {
      "buffer": 0,
      "byteLength": 90888,
      "byteOffset": 239976,
      "byteStride": 8,
      "name": "floatBufferViews",
      "target": 34962
    },
    {
      "buffer": 0,
      "byteLength": 272664,
      "byteOffset": 330864,
      "byteStride": 12,
      "name": "floatBufferViews",
      "target": 34962
    },
    {
      "buffer": 0,
      "byteLength": 181776,
      "byteOffset": 603528,
      "byteStride": 16,
      "name": "floatBufferViews",
      "target": 34962
    }
  ],
  "buffers": [
    {
      "byteLength": 785304,
      "uri": "scene.bin"
    }
  ],
  "images": [
    {
      "uri": "textures/elefante_baseColor.jpeg"
    },
    {
      "uri": "textures/elefante_metallicRoughness.png"
    },
    {
      "uri": "textures/elefante_normal.jpeg"
    }
  ],
  "materials": [
    {
      "doubleSided": true,
      "name": "elefante",
      "normalTexture": {
        "index": 2,
        "scale": 1,
        "texCoord": 0
      },
      "occlusionTexture": {
        "index": 1,
        "strength": 1,
        "texCoord": 0
      },
      "pbrMetallicRoughness": {
        "baseColorFactor": [
          1,
          1,
          1,
          1
        ],
        "baseColorTexture": {
          "index": 0,
          "texCoord": 0
        },
        "metallicFactor": 0,
        "metallicRoughnessTexture": {
          "index": 1,
          "texCoord": 0
        },
        "roughnessFactor": 0
      }
    }
  ],
  "meshes": [
    {
      "primitives": [
        {
          "attributes": {
            "NORMAL": 1,
            "POSITION": 0,
            "TANGENT": 2,
            "TEXCOORD_0": 3
          },
          "indices": 4,
          "material": 0,
          "mode": 4
        }
      ]
    }
  ],
  "nodes": [
    {
      "children": [
        1
      ],
      "name": "RootNode (gltf orientation matrix)",
      "rotation": [
        -0.70710678118654746,
        -0,
        -0,
        0.70710678118654757
      ]
    },
    {
      "children": [
        2
      ],
      "matrix": [
        1,
        0,
        0,
        0,
        0,
        -2.2204460492503131e-16,
        -1,
        0,
        0,
        1,
        -2.2204460492503131e-16,
        0,
        0,
        -6.198883056640625e-06,
        9.5367431640625e-07,
        1
      ],
      "name": "RootNode (model correction matrix)"
    },
    {
      "children": [
        3
      ],
      "name": "elefante.obj.cleaner.materialmerger.gles"
    },
    {
      "mesh": 0,
      "name": ""
    }
  ],
  "samplers": [
    {
      "magFilter": 9729,
      "minFilter": 9987,
      "wrapS": 10497,
      "wrapT": 10497
    }
  ],
  "scene": 0,
  "scenes": [
    {
      "name": "OSG_Scene",
      "nodes": [
        0
      ]
    }
  ],
  "textures": [
    {
      "sampler": 0,
      "source": 0
    },
    {
      "sampler": 0,
      "source": 1
    },
    {
      "sampler": 0,
      "source": 2
    }
  ]
}

