{
  "asset": {
    "version": "2.0",
    "generator": "GLTFExporter"
  },
  "scenes": [
    {
      "name": "Scene",
      "nodes": [
        16
      ]
    }
  ],
  "scene": 0,
  "nodes": [
    {
      "name": "Plane080_lavanda_0",
      "extras": {
        "name": "Plane080_lavanda_0"
      },
      "mesh": 0
    },
    {
      "matrix": [
        1,
        0,
        0,
        0,
        0,
        1,
        0,
        0,
        0,
        0,
        1,
        0,
        0.42109978199005127,
        5.726972579956055,
        -0.10622787475585937,
        1
      ],
      "children": [
        0
      ]
    },
    {
      "matrix": [
        0.2680153130144927,
        -0.15777585690856294,
        0.9504075814967555,
        0,
        0.1734660775775589,
        0.978279409185495,
        0.11348531840522424,
        0,
        -0.9476694106699868,
        0.13444767212729078,
        0.28956262110285013,
        0,
        436.3143310546875,
        -19.363998413085937,
        436.69512939453125,
        1
      ],
      "name": "Plane080",
      "extras": {
        "name": "Plane080"
      },
      "children": [
        1
      ]
    },
    {
      "name": "Plane081_lavanda_0",
      "extras": {
        "name": "Plane081_lavanda_0"
      },
      "mesh": 1
    },
    {
      "matrix": [
        1,
        0,
        0,
        0,
        0,
        1,
        0,
        0,
        0,
        0,
        1,
        0,
        0.42109978199005127,
        5.726972579956055,
        -0.10622787475585937,
        1
      ],
      "children": [
        3
      ]
    },
    {
      "matrix": [
        -0.9740388682686578,
        0.05456121055403135,
        -0.21970743593422362,
        0,
        0.015281680606978927,
        0.9841547618582836,
        0.1766518467197308,
        0,
        0.22586445789397366,
        0.16870826599352992,
        -0.9594387774348698,
        0,
        436.3143310546875,
        -19.363998413085937,
        436.69512939453125,
        1
      ],
      "name": "Plane081",
      "extras": {
        "name": "Plane081"
      },
      "children": [
        4
      ]
    },
    {
      "name": "Plane082_lavanda_0",
      "extras": {
        "name": "Plane082_lavanda_0"
      },
      "mesh": 2
    },
    {
      "matrix": [
        1,
        0,
        0,
        0,
        0,
        1,
        0,
        0,
        0,
        0,
        1,
        0,
        0.42109978199005127,
        5.726972579956055,
        -0.10622787475585937,
        1
      ],
      "children": [
        6
      ]
    },
    {
      "matrix": [
        0.8811860066061392,
        0.15834777023976432,
        0.44546291138726695,
        0,
        -0.2517711264874174,
        0.9546901729414055,
        0.15867568672095375,
        0,
        -0.40015312272776543,
        -0.25197749373546085,
        0.8811270175303977,
        0,
        436.3143310546875,
        -19.363998413085937,
        436.69512939453125,
        1
      ],
      "name": "Plane082",
      "extras": {
        "name": "Plane082"
      },
      "children": [
        7
      ]
    },
    {
      "name": "Plane083_lavanda_0",
      "extras": {
        "name": "Plane083_lavanda_0"
      },
      "mesh": 3
    },
    {
      "matrix": [
        1,
        0,
        0,
        0,
        0,
        1,
        0,
        0,
        0,
        0,
        1,
        0,
        0.42109978199005127,
        5.726972579956055,
        -0.10622787475585937,
        1
      ],
      "children": [
        9
      ]
    },
    {
      "matrix": [
        0.08300390548876846,
        -0.12997115693281222,
        -0.9880373727947531,
        0,
        -0.20651955668377928,
        0.9676919447832306,
        -0.14464429718721794,
        0,
        0.9749153934474245,
        0.21605508178979552,
        0.053480625015587584,
        0,
        436.3143310546875,
        -19.363998413085937,
        436.69512939453125,
        1
      ],
      "name": "Plane083",
      "extras": {
        "name": "Plane083"
      },
      "children": [
        10
      ]
    },
    {
      "name": "RootNode",
      "extras": {
        "name": "RootNode"
      },
      "children": [
        2,
        5,
        8,
        11
      ]
    },
    {
      "matrix": [
        1,
        0,
        0,
        0,
        0,
        2.220446049250313e-16,
        1,
        0,
        0,
        -1,
        2.220446049250313e-16,
        0,
        0,
        0,
        0,
        1
      ],
      "name": "f2c5ce0e897e4d4abee514f5ad09f273fbx",
      "extras": {
        "name": "f2c5ce0e897e4d4abee514f5ad09f273.fbx"
      },
      "children": [
        12
      ]
    },
    {
      "name": "RootNode_(model_correction_matrix)",
      "extras": {
        "name": "RootNode (model correction matrix)"
      },
      "children": [
        13
      ]
    },
    {
      "matrix": [
        1,
        0,
        0,
        0,
        0,
        2.220446049250313e-16,
        -1,
        0,
        0,
        1,
        2.220446049250313e-16,
        0,
        -441.52245751978233,
        28.283679239685895,
        -432.41854576653236,
        1
      ],
      "name": "RootNode_(gltf_orientation_matrix)",
      "extras": {
        "name": "RootNode (gltf orientation matrix)"
      },
      "children": [
        14
      ]
    },
    {
      "name": "scene.gltf",
      "children": [
        15
      ]
    }
  ],
  "bufferViews": [
    {
      "buffer": 0,
      "byteOffset": 0,
      "byteLength": 180,
      "target": 34962,
      "byteStride": 12
    },
    {
      "buffer": 0,
      "byteOffset": 180,
      "byteLength": 180,
      "target": 34962,
      "byteStride": 12
    },
    {
      "buffer": 0,
      "byteOffset": 360,
      "byteLength": 240,
      "target": 34962,
      "byteStride": 16
    },
    {
      "buffer": 0,
      "byteOffset": 600,
      "byteLength": 120,
      "target": 34962,
      "byteStride": 8
    },
    {
      "buffer": 0,
      "byteOffset": 720,
      "byteLength": 192,
      "target": 34963
    },
    {
      "buffer": 0,
      "byteOffset": 912,
      "byteLength": 180,
      "target": 34962,
      "byteStride": 12
    },
    {
      "buffer": 0,
      "byteOffset": 1092,
      "byteLength": 180,
      "target": 34962,
      "byteStride": 12
    },
    {
      "buffer": 0,
      "byteOffset": 1272,
      "byteLength": 240,
      "target": 34962,
      "byteStride": 16
    },
    {
      "buffer": 0,
      "byteOffset": 1512,
      "byteLength": 120,
      "target": 34962,
      "byteStride": 8
    },
    {
      "buffer": 0,
      "byteOffset": 1632,
      "byteLength": 192,
      "target": 34963
    },
    {
      "buffer": 0,
      "byteOffset": 1824,
      "byteLength": 180,
      "target": 34962,
      "byteStride": 12
    },
    {
      "buffer": 0,
      "byteOffset": 2004,
      "byteLength": 180,
      "target": 34962,
      "byteStride": 12
    },
    {
      "buffer": 0,
      "byteOffset": 2184,
      "byteLength": 240,
      "target": 34962,
      "byteStride": 16
    },
    {
      "buffer": 0,
      "byteOffset": 2424,
      "byteLength": 120,
      "target": 34962,
      "byteStride": 8
    },
    {
      "buffer": 0,
      "byteOffset": 2544,
      "byteLength": 192,
      "target": 34963
    },
    {
      "buffer": 0,
      "byteOffset": 2736,
      "byteLength": 180,
      "target": 34962,
      "byteStride": 12
    },
    {
      "buffer": 0,
      "byteOffset": 2916,
      "byteLength": 180,
      "target": 34962,
      "byteStride": 12
    },
    {
      "buffer": 0,
      "byteOffset": 3096,
      "byteLength": 240,
      "target": 34962,
      "byteStride": 16
    },
    {
      "buffer": 0,
      "byteOffset": 3336,
      "byteLength": 120,
      "target": 34962,
      "byteStride": 8
    },
    {
      "buffer": 0,
      "byteOffset": 3456,
      "byteLength": 192,
      "target": 34963
    }
  ],
  "buffers": [
    {
      "byteLength": 3648,
      "uri": "data:application/octet-stream;base64,"
    }
  ],
  "accessors": [
    {
      "bufferView": 0,
      "componentType": 5126,
      "count": 15,
      "max": [
        0.1265493482351303,
        0.6341544389724731,
        0.998563826084137
      ],
      "min": [
        -0.14826054871082306,
        0.05157076567411423,
        0.7732064723968506
      ],
      "type": "VEC3"
    },
    {
      "bufferView": 1,
      "componentType": 5126,
      "count": 15,
      "max": [
        4.200392723083496,
        5.007509231567383,
        0.27734673023223877
      ],
      "min": [
        -3.9370079040527343,
        -5.905511856079102,
        -3.257739305496216
      ],
      "type": "VEC3"
    },
    {
      "bufferView": 2,
      "componentType": 5126,
      "count": 15,
      "max": [
        1,
        0.036722276359796524,
        0.1533329039812088,
        1
      ],
      "min": [
        0.9881746768951416,
        -0.03200240060687065,
        -0.13080154359340668,
        1
      ],
      "type": "VEC4"
    },
    {
      "bufferView": 3,
      "componentType": 5126,
      "count": 15,
      "max": [
        1,
        1
      ],
      "min": [
        0,
        0
      ],
      "type": "VEC2"
    },
    {
      "bufferView": 4,
      "componentType": 5125,
      "count": 48,
      "max": [
        14
      ],
      "min": [
        0
      ],
      "type": "SCALAR"
    },
    {
      "bufferView": 5,
      "componentType": 5126,
      "count": 15,
      "max": [
        0.1265493482351303,
        0.6341544389724731,
        0.998563826084137
      ],
      "min": [
        -0.14826054871082306,
        0.05157076567411423,
        0.7732064723968506
      ],
      "type": "VEC3"
    },
    {
      "bufferView": 6,
      "componentType": 5126,
      "count": 15,
      "max": [
        4.200392723083496,
        5.007509231567383,
        0.27734673023223877
      ],
      "min": [
        -3.9370079040527343,
        -5.905511856079102,
        -3.257739305496216
      ],
      "type": "VEC3"
    },
    {
      "bufferView": 7,
      "componentType": 5126,
      "count": 15,
      "max": [
        1,
        0.036722276359796524,
        0.1533329039812088,
        1
      ],
      "min": [
        0.9881746768951416,
        -0.03200240060687065,
        -0.13080154359340668,
        1
      ],
      "type": "VEC4"
    },
    {
      "bufferView": 8,
      "componentType": 5126,
      "count": 15,
      "max": [
        1,
        1
      ],
      "min": [
        0,
        0
      ],
      "type": "VEC2"
    },
    {
      "bufferView": 9,
      "componentType": 5125,
      "count": 48,
      "max": [
        14
      ],
      "min": [
        0
      ],
      "type": "SCALAR"
    },
    {
      "bufferView": 10,
      "componentType": 5126,
      "count": 15,
      "max": [
        0.1265493482351303,
        0.6341544389724731,
        0.998563826084137
      ],
      "min": [
        -0.14826054871082306,
        0.05157076567411423,
        0.7732064723968506
      ],
      "type": "VEC3"
    },
    {
      "bufferView": 11,
      "componentType": 5126,
      "count": 15,
      "max": [
        4.200392723083496,
        5.007509231567383,
        0.27734673023223877
      ],
      "min": [
        -3.9370079040527343,
        -5.905511856079102,
        -3.257739305496216
      ],
      "type": "VEC3"
    },
    {
      "bufferView": 12,
      "componentType": 5126,
      "count": 15,
      "max": [
        1,
        0.036722276359796524,
        0.1533329039812088,
        1
      ],
      "min": [
        0.9881746768951416,
        -0.03200240060687065,
        -0.13080154359340668,
        1
      ],
      "type": "VEC4"
    },
    {
      "bufferView": 13,
      "componentType": 5126,
      "count": 15,
      "max": [
        1,
        1
      ],
      "min": [
        0,
        0
      ],
      "type": "VEC2"
    },
    {
      "bufferView": 14,
      "componentType": 5125,
      "count": 48,
      "max": [
        14
      ],
      "min": [
        0
      ],
      "type": "SCALAR"
    },
    {
      "bufferView": 15,
      "componentType": 5126,
      "count": 15,
      "max": [
        0.1265493482351303,
        0.6341544389724731,
        0.998563826084137
      ],
      "min": [
        -0.14826054871082306,
        0.05157076567411423,
        0.7732064723968506
      ],
      "type": "VEC3"
    },
    {
      "bufferView": 16,
      "componentType": 5126,
      "count": 15,
      "max": [
        4.200392723083496,
        5.007509231567383,
        0.27734673023223877
      ],
      "min": [
        -3.9370079040527343,
        -5.905511856079102,
        -3.257739305496216
      ],
      "type": "VEC3"
    },
    {
      "bufferView": 17,
      "componentType": 5126,
      "count": 15,
      "max": [
        1,
        0.036722276359796524,
        0.1533329039812088,
        1
      ],
      "min": [
        0.9881746768951416,
        -0.03200240060687065,
        -0.13080154359340668,
        1
      ],
      "type": "VEC4"
    },
    {
      "bufferView": 18,
      "componentType": 5126,
      "count": 15,
      "max": [
        1,
        1
      ],
      "min": [
        0,
        0
      ],
      "type": "VEC2"
    },
    {
      "bufferView": 19,
      "componentType": 5125,
      "count": 48,
      "max": [
        14
      ],
      "min": [
        0
      ],
      "type": "SCALAR"
    }
  ],
  "materials": [
    {
      "pbrMetallicRoughness": {
        "metallicFactor": 0,
        "roughnessFactor": 0.6,
        "metallicRoughnessTexture": {
          "index": 0
        },
        "baseColorTexture": {
          "index": 1
        }
      },
      "normalTexture": {
        "index": 2,
        "scale": 1
      },
      "occlusionTexture": {
        "index": 0,
        "texCoord": 1
      },
      "alphaMode": "BLEND",
      "doubleSided": true,
      "name": "lavanda"
    }
  ],
  "textures": [
    {
      "sampler": 0,
      "source": 0
    },
    {
      "sampler": 1,
      "source": 1
    },
    {
      "sampler": 2,
      "source": 2
    }
  ],
  "samplers": [
    {
      "magFilter": 9729,
      "minFilter": 9987,
      "wrapS": 10497,
      "wrapT": 10497
    },
    {
      "magFilter": 9729,
      "minFilter": 9987,
      "wrapS": 10497,
      "wrapT": 10497
    },
    {
      "magFilter": 9729,
      "minFilter": 9987,
      "wrapS": 10497,
      "wrapT": 10497
    }
  ],
  "images": [
    {
      "mimeType": "image/jpeg",
      "uri": "data:image/jpeg;base64,"
    },
    {
      "mimeType": "image/png",
      "uri": "data:image/png;base64,"
    },
    {
      "mimeType": "image/jpeg",
      "uri": "data:image/jpeg;base64,"
    }
  ],
  "meshes": [
    {
      "primitives": [
        {
          "mode": 4,
          "attributes": {
            "NORMAL": 0,
            "POSITION": 1,
            "TANGENT": 2,
            "TEXCOORD_0": 3,
            "TEXCOORD_1": 3
          },
          "indices": 4,
          "material": 0
        }
      ]
    },
    {
      "primitives": [
        {
          "mode": 4,
          "attributes": {
            "NORMAL": 5,
            "POSITION": 6,
            "TANGENT": 7,
            "TEXCOORD_0": 8,
            "TEXCOORD_1": 8
          },
          "indices": 9,
          "material": 0
        }
      ]
    },
    {
      "primitives": [
        {
          "mode": 4,
          "attributes": {
            "NORMAL": 10,
            "POSITION": 11,
            "TANGENT": 12,
            "TEXCOORD_0": 13,
            "TEXCOORD_1": 13
          },
          "indices": 14,
          "material": 0
        }
      ]
    },
    {
      "primitives": [
        {
          "mode": 4,
          "attributes": {
            "NORMAL": 15,
            "POSITION": 16,
            "TANGENT": 17,
            "TEXCOORD_0": 18,
            "TEXCOORD_1": 18
          },
          "indices": 19,
          "material": 0
        }
      ]
    }
  ]
}