{
  "asset": {
    "version": "2.0",
    "generator": "GLTFExporter"
  },
  "scenes": [
    {
      "name": "Scene",
      "nodes": [
        7
      ]
    }
  ],
  "scene": 0,
  "nodes": [
    {
      "name": "Hemi",
      "extras": {
        "name": "Hemi"
      }
    },
    {
      "matrix": [
        1,
        0,
        0,
        0,
        0,
        0.97906,
        -0.20357,
        0,
        0,
        0.20357,
        0.97906,
        0,
        -0.06177000000000001,
        1.24175,
        4.0545599999999995,
        1
      ],
      "name": "Hemi",
      "extras": {
        "name": "Hemi"
      },
      "children": [
        0
      ]
    },
    {
      "name": "monkey2_0",
      "extras": {
        "name": "monkey2_0"
      },
      "mesh": 0
    },
    {
      "name": "monkey2",
      "extras": {
        "name": "monkey2"
      },
      "children": [
        2
      ]
    },
    {
      "name": "Root",
      "extras": {
        "name": "Root"
      },
      "children": [
        1,
        3
      ]
    },
    {
      "name": "RootNode_(model_correction_matrix)",
      "extras": {
        "name": "RootNode (model correction matrix)"
      },
      "children": [
        4
      ]
    },
    {
      "matrix": [
        1,
        0,
        0,
        0,
        0,
        2.220446049250313e-16,
        -1,
        0,
        0,
        1,
        2.220446049250313e-16,
        0,
        0,
        0,
        0,
        1
      ],
      "name": "RootNode_(gltf_orientation_matrix)",
      "extras": {
        "name": "RootNode (gltf orientation matrix)"
      },
      "children": [
        5
      ]
    },
    {
      "name": "scene.gltf",
      "children": [
        6
      ]
    }
  ],
  "bufferViews": [
    {
      "buffer": 0,
      "byteOffset": 0,
      "byteLength": 16944,
      "target": 34962,
      "byteStride": 12
    },
    {
      "buffer": 0,
      "byteOffset": 16944,
      "byteLength": 16944,
      "target": 34962,
      "byteStride": 12
    },
    {
      "buffer": 0,
      "byteOffset": 33888,
      "byteLength": 22592,
      "target": 34962,
      "byteStride": 16
    },
    {
      "buffer": 0,
      "byteOffset": 56480,
      "byteLength": 11296,
      "target": 34962,
      "byteStride": 8
    },
    {
      "buffer": 0,
      "byteOffset": 67776,
      "byteLength": 28440,
      "target": 34963
    }
  ],
  "buffers": [
    {
      "byteLength": 96216,
      "uri": "data:application/octet-stream;base64,"
    }
  ],
  "accessors": [
    {
      "bufferView": 0,
      "componentType": 5126,
      "count": 1412,
      "max": [
        0.9994841814041138,
        0.9994484782218933,
        0.9998913407325745
      ],
      "min": [
        -0.9999973177909851,
        -0.9981515407562256,
        -0.9999850392341614
      ],
      "type": "VEC3"
    },
    {
      "bufferView": 1,
      "componentType": 5126,
      "count": 1412,
      "max": [
        0.5318999886512756,
        1.2101800441741943,
        1.7024999856948852
      ],
      "min": [
        -0.6021000146865845,
        -0.4825800061225891,
        -0.030060000717639923
      ],
      "type": "VEC3"
    },
    {
      "bufferView": 2,
      "componentType": 5126,
      "count": 1412,
      "max": [
        0.999998927116394,
        0.9995743036270142,
        0.9926566481590271,
        1
      ],
      "min": [
        -0.9996316432952881,
        -0.9994996190071106,
        -0.9952133893966675,
        -1
      ],
      "type": "VEC4"
    },
    {
      "bufferView": 3,
      "componentType": 5126,
      "count": 1412,
      "max": [
        0.9993100166320801,
        0.9908499717712402
      ],
      "min": [
        0.003000000026077032,
        0.00011000000085914507
      ],
      "type": "VEC2"
    },
    {
      "bufferView": 4,
      "componentType": 5125,
      "count": 7110,
      "max": [
        1411
      ],
      "min": [
        0
      ],
      "type": "SCALAR"
    }
  ],
  "materials": [
    {
      "pbrMetallicRoughness": {
        "metallicFactor": 0,
        "roughnessFactor": 0.6,
        "baseColorTexture": {
          "index": 0
        }
      },
      "doubleSided": true,
      "name": "fur_3.001"
    }
  ],
  "textures": [
    {
      "sampler": 0,
      "source": 0
    }
  ],
  "samplers": [
    {
      "magFilter": 9729,
      "minFilter": 9987,
      "wrapS": 10497,
      "wrapT": 10497
    }
  ],
  "images": [
    {
      "mimeType": "image/jpeg",
      "uri": "data:image/jpeg;base64,"
    }
  ],
  "meshes": [
    {
      "primitives": [
        {
          "mode": 4,
          "attributes": {
            "NORMAL": 0,
            "POSITION": 1,
            "TANGENT": 2,
            "TEXCOORD_0": 3
          },
          "indices": 4,
          "material": 0
        }
      ]
    }
  ]
}