{
  "accessors": [
    {
      "bufferView": 2,
      "componentType": 5126,
      "count": 65532,
      "max": [
        0.19654896855354309,
        0.24409674108028412,
        0.10115482658147812
      ],
      "min": [
        -0.28811752796173096,
        -0.1459546685218811,
        -0.15469092130661011
      ],
      "type": "VEC3"
    },
    {
      "bufferView": 2,
      "byteOffset": 786384,
      "componentType": 5126,
      "count": 65532,
      "max": [
        0.99887567758560181,
        0.99919062852859497,
        0.99998480081558228
      ],
      "min": [
        -0.96724402904510498,
        -0.99562996625900269,
        -0.99995511770248413
      ],
      "type": "VEC3"
    },
    {
      "bufferView": 1,
      "componentType": 5126,
      "count": 65532,
      "max": [
        0.19334900379180908,
        0.9993860125541687
      ],
      "min": [
        0.00068100000498816371,
        0.8957030177116394
      ],
      "type": "VEC2"
    },
    {
      "bufferView": 0,
      "componentType": 5125,
      "count": 65532,
      "max": [
        65531
      ],
      "min": [
        0
      ],
      "type": "SCALAR"
    },
    {
      "bufferView": 2,
      "byteOffset": 1572768,
      "componentType": 5126,
      "count": 65532,
      "max": [
        0.37075802683830261,
        0.23539704084396362,
        0.11057557910680771
      ],
      "min": [
        -0.34401899576187134,
        -0.20957405865192413,
        -0.1518348902463913
      ],
      "type": "VEC3"
    },
    {
      "bufferView": 2,
      "byteOffset": 2359152,
      "componentType": 5126,
      "count": 65532,
      "max": [
        0.99659395217895508,
        0.99997270107269287,
        0.99993348121643066
      ],
      "min": [
        -0.9991496205329895,
        -0.99989324808120728,
        -0.99989831447601318
      ],
      "type": "VEC3"
    },
    {
      "bufferView": 1,
      "byteOffset": 524256,
      "componentType": 5126,
      "count": 65532,
      "max": [
        0.22209100425243378,
        0.99926799535751343
      ],
      "min": [
        0.00061699998332187533,
        0.50414401292800903
      ],
      "type": "VEC2"
    },
    {
      "bufferView": 0,
      "byteOffset": 262128,
      "componentType": 5125,
      "count": 65532,
      "max": [
        65531
      ],
      "min": [
        0
      ],
      "type": "SCALAR"
    },
    {
      "bufferView": 2,
      "byteOffset": 3145536,
      "componentType": 5126,
      "count": 65532,
      "max": [
        0.36793482303619385,
        0.23587410151958466,
        0.11088518798351288
      ],
      "min": [
        -0.42391309142112732,
        -0.22256499528884888,
        -0.18080487847328186
      ],
      "type": "VEC3"
    },
    {
      "bufferView": 2,
      "byteOffset": 3931920,
      "componentType": 5126,
      "count": 65532,
      "max": [
        0.99936157464981079,
        0.99999898672103882,
        0.99999529123306274
      ],
      "min": [
        -0.99922937154769897,
        -0.99996554851531982,
        -0.99875867366790771
      ],
      "type": "VEC3"
    },
    {
      "bufferView": 1,
      "byteOffset": 1048512,
      "componentType": 5126,
      "count": 65532,
      "max": [
        0.2529120147228241,
        0.99936598539352417
      ],
      "min": [
        0.00061099999584257603,
        0.011559999547898769
      ],
      "type": "VEC2"
    },
    {
      "bufferView": 0,
      "byteOffset": 524256,
      "componentType": 5125,
      "count": 65532,
      "max": [
        65531
      ],
      "min": [
        0
      ],
      "type": "SCALAR"
    },
    {
      "bufferView": 2,
      "byteOffset": 4718304,
      "componentType": 5126,
      "count": 65532,
      "max": [
        0.3882649838924408,
        0.29526957869529724,
        0.18324168026447296
      ],
      "min": [
        -0.42482271790504456,
        -0.24724037945270538,
        -0.24797430634498596
      ],
      "type": "VEC3"
    },
    {
      "bufferView": 2,
      "byteOffset": 5504688,
      "componentType": 5126,
      "count": 65532,
      "max": [
        0.99811089038848877,
        0.99985408782958984,
        0.99999386072158813
      ],
      "min": [
        -0.99994629621505737,
        -0.99999552965164185,
        -0.99993294477462769
      ],
      "type": "VEC3"
    },
    {
      "bufferView": 1,
      "byteOffset": 1572768,
      "componentType": 5126,
      "count": 65532,
      "max": [
        0.35193198919296265,
        0.99938702583312988
      ],
      "min": [
        0.00063299998873844743,
        0.00068599998485296965
      ],
      "type": "VEC2"
    },
    {
      "bufferView": 0,
      "byteOffset": 786384,
      "componentType": 5125,
      "count": 65532,
      "max": [
        65531
      ],
      "min": [
        0
      ],
      "type": "SCALAR"
    },
    {
      "bufferView": 2,
      "byteOffset": 6291072,
      "componentType": 5126,
      "count": 65532,
      "max": [
        0.40180853009223938,
        0.3054196834564209,
        0.1757013201713562
      ],
      "min": [
        -0.42622944712638855,
        -0.250520259141922,
        -0.14340506494045258
      ],
      "type": "VEC3"
    },
    {
      "bufferView": 2,
      "byteOffset": 7077456,
      "componentType": 5126,
      "count": 65532,
      "max": [
        0.99967652559280396,
        0.99995505809783936,
        0.99986362457275391
      ],
      "min": [
        -0.99980270862579346,
        -0.99998891353607178,
        -0.99997562170028687
      ],
      "type": "VEC3"
    },
    {
      "bufferView": 1,
      "byteOffset": 2097024,
      "componentType": 5126,
      "count": 65532,
      "max": [
        0.46465900540351868,
        0.99935799837112427
      ],
      "min": [
        0.042240001261234283,
        0.0054500000551342964
      ],
      "type": "VEC2"
    },
    {
      "bufferView": 0,
      "byteOffset": 1048512,
      "componentType": 5125,
      "count": 65532,
      "max": [
        65531
      ],
      "min": [
        0
      ],
      "type": "SCALAR"
    },
    {
      "bufferView": 2,
      "byteOffset": 7863840,
      "componentType": 5126,
      "count": 65532,
      "max": [
        0.39897429943084717,
        0.3054196834564209,
        0.18291233479976654
      ],
      "min": [
        -0.42603960633277893,
        -0.27316248416900635,
        -0.26152360439300537
      ],
      "type": "VEC3"
    },
    {
      "bufferView": 2,
      "byteOffset": 8650224,
      "componentType": 5126,
      "count": 65532,
      "max": [
        0.99987304210662842,
        0.99988609552383423,
        0.99958688020706177
      ],
      "min": [
        -0.9996456503868103,
        -0.99992311000823975,
        -0.99970465898513794
      ],
      "type": "VEC3"
    },
    {
      "bufferView": 1,
      "byteOffset": 2621280,
      "componentType": 5126,
      "count": 65532,
      "max": [
        0.57853198051452637,
        0.98802697658538818
      ],
      "min": [
        0.042281001806259155,
        0.00063899997621774673
      ],
      "type": "VEC2"
    },
    {
      "bufferView": 0,
      "byteOffset": 1310640,
      "componentType": 5125,
      "count": 65532,
      "max": [
        65531
      ],
      "min": [
        0
      ],
      "type": "SCALAR"
    },
    {
      "bufferView": 2,
      "byteOffset": 9436608,
      "componentType": 5126,
      "count": 28374,
      "max": [
        0.40153637528419495,
        0.30234235525131226,
        0.17432714998722076
      ],
      "min": [
        -0.42623615264892578,
        -0.27288165688514709,
        -0.25979870557785034
      ],
      "type": "VEC3"
    },
    {
      "bufferView": 2,
      "byteOffset": 9777096,
      "componentType": 5126,
      "count": 28374,
      "max": [
        0.99993348121643066,
        0.9999394416809082,
        0.99818074703216553
      ],
      "min": [
        -0.99990123510360718,
        -0.99972307682037354,
        -0.99985235929489136
      ],
      "type": "VEC3"
    },
    {
      "bufferView": 1,
      "byteOffset": 3145536,
      "componentType": 5126,
      "count": 28374,
      "max": [
        0.77200198173522949,
        0.99938899278640747
      ],
      "min": [
        0.014210999943315983,
        0.00083099998300895095
      ],
      "type": "VEC2"
    },
    {
      "bufferView": 0,
      "byteOffset": 1572768,
      "componentType": 5125,
      "count": 28374,
      "max": [
        28373
      ],
      "min": [
        0
      ],
      "type": "SCALAR"
    }
  ],
  "asset": {
    "extras": {
      "author": "Sawaporn Tipparat (https://sketchfab.com/59330271)",
      "license": "CC-BY-4.0 (http://creativecommons.org/licenses/by/4.0/)",
      "source": "https://sketchfab.com/3d-models/fiddler-crab-female-229e0899376b4b10aa924225f0cfcb49",
      "title": "FIDDLER CRAB FEMALE"
    },
    "generator": "Sketchfab-8.33.0",
    "version": "2.0"
  },
  "bufferViews": [
    {
      "buffer": 0,
      "byteLength": 1686264,
      "byteOffset": 0,
      "name": "floatBufferViews",
      "target": 34963
    },
    {
      "buffer": 0,
      "byteLength": 3372528,
      "byteOffset": 1686264,
      "byteStride": 8,
      "name": "floatBufferViews",
      "target": 34962
    },
    {
      "buffer": 0,
      "byteLength": 10117584,
      "byteOffset": 5058792,
      "byteStride": 12,
      "name": "floatBufferViews",
      "target": 34962
    }
  ],
  "buffers": [
    {
      "byteLength": 15176376,
      "uri": "scene.bin"
    }
  ],
  "images": [
    {
      "uri": "textures/TextureAtlas_1001_baseColor.png"
    }
  ],
  "materials": [
    {
      "doubleSided": true,
      "emissiveFactor": [
        0,
        0,
        0
      ],
      "name": "TextureAtlas_1001",
      "pbrMetallicRoughness": {
        "baseColorFactor": [
          1,
          1,
          1,
          1
        ],
        "baseColorTexture": {
          "index": 0,
          "texCoord": 0
        },
        "metallicFactor": 0,
        "roughnessFactor": 1
      }
    }
  ],
  "meshes": [
    {
      "primitives": [
        {
          "attributes": {
            "NORMAL": 1,
            "POSITION": 0,
            "TEXCOORD_0": 2
          },
          "indices": 3,
          "material": 0,
          "mode": 4
        }
      ]
    },
    {
      "primitives": [
        {
          "attributes": {
            "NORMAL": 5,
            "POSITION": 4,
            "TEXCOORD_0": 6
          },
          "indices": 7,
          "material": 0,
          "mode": 4
        }
      ]
    },
    {
      "primitives": [
        {
          "attributes": {
            "NORMAL": 9,
            "POSITION": 8,
            "TEXCOORD_0": 10
          },
          "indices": 11,
          "material": 0,
          "mode": 4
        }
      ]
    },
    {
      "primitives": [
        {
          "attributes": {
            "NORMAL": 13,
            "POSITION": 12,
            "TEXCOORD_0": 14
          },
          "indices": 15,
          "material": 0,
          "mode": 4
        }
      ]
    },
    {
      "primitives": [
        {
          "attributes": {
            "NORMAL": 17,
            "POSITION": 16,
            "TEXCOORD_0": 18
          },
          "indices": 19,
          "material": 0,
          "mode": 4
        }
      ]
    },
    {
      "primitives": [
        {
          "attributes": {
            "NORMAL": 21,
            "POSITION": 20,
            "TEXCOORD_0": 22
          },
          "indices": 23,
          "material": 0,
          "mode": 4
        }
      ]
    },
    {
      "primitives": [
        {
          "attributes": {
            "NORMAL": 25,
            "POSITION": 24,
            "TEXCOORD_0": 26
          },
          "indices": 27,
          "material": 0,
          "mode": 4
        }
      ]
    }
  ],
  "nodes": [
    {
      "children": [
        1
      ],
      "name": "RootNode (gltf orientation matrix)",
      "rotation": [
        -0.70710678118654746,
        -0,
        -0,
        0.70710678118654757
      ]
    },
    {
      "children": [
        2
      ],
      "name": "RootNode (model correction matrix)"
    },
    {
      "children": [
        3
      ],
      "name": "root"
    },
    {
      "children": [
        4
      ],
      "matrix": [
        1,
        0,
        0,
        0,
        0,
        2.2204460492503131e-16,
        1,
        0,
        0,
        -1,
        2.2204460492503131e-16,
        0,
        0,
        0,
        0,
        1
      ],
      "name": "GLTF_SceneRootNode"
    },
    {
      "children": [
        5,
        6,
        7,
        8,
        9,
        10,
        11
      ],
      "matrix": [
        0.94402032606152775,
        0.031502624446852062,
        0.32837967147137392,
        0,
        -0.3284135273820723,
        -0.0042411138349656152,
        0.94452451952604377,
        0,
        0.031147696787271056,
        -0.99949467112456369,
        0.0063421903510351152,
        0,
        0.0004777590511366725,
        0,
        0.00023850798606872559,
        1
      ],
      "name": "texturedMesh_0"
    },
    {
      "mesh": 0,
      "name": ""
    },
    {
      "mesh": 1,
      "name": ""
    },
    {
      "mesh": 2,
      "name": ""
    },
    {
      "mesh": 3,
      "name": ""
    },
    {
      "mesh": 4,
      "name": ""
    },
    {
      "mesh": 5,
      "name": ""
    },
    {
      "mesh": 6,
      "name": ""
    }
  ],
  "samplers": [
    {
      "magFilter": 9729,
      "minFilter": 9987,
      "wrapS": 10497,
      "wrapT": 10497
    }
  ],
  "scene": 0,
  "scenes": [
    {
      "name": "OSG_Scene",
      "nodes": [
        0
      ]
    }
  ],
  "textures": [
    {
      "sampler": 0,
      "source": 0
    }
  ]
}

