{
  "accessors": [
    {
      "bufferView": 2,
      "componentType": 5126,
      "count": 1118,
      "max": [
        0.4585610032081604,
        -2.5413990020751953,
        5.3449230194091797
      ],
      "min": [
        -0.4585610032081604,
        -2.903325080871582,
        4.9823927879333496
      ],
      "type": "VEC3"
    },
    {
      "bufferView": 2,
      "byteOffset": 13416,
      "componentType": 5126,
      "count": 1118,
      "max": [
        0.99833393096923828,
        0.99833393096923828,
        1
      ],
      "min": [
        -0.99833393096923828,
        -0.99833393096923828,
        -1
      ],
      "type": "VEC3"
    },
    {
      "bufferView": 1,
      "componentType": 5126,
      "count": 1118,
      "max": [
        1,
        1
      ],
      "min": [
        0,
        0
      ],
      "type": "VEC2"
    },
    {
      "bufferView": 0,
      "componentType": 5125,
      "count": 5760,
      "max": [
        1117
      ],
      "min": [
        0
      ],
      "type": "SCALAR"
    },
    {
      "bufferView": 2,
      "byteOffset": 26832,
      "componentType": 5126,
      "count": 32531,
      "max": [
        1.9789799451828003,
        2.0801620483398438,
        1.3248929977416992
      ],
      "min": [
        -1.9789639711380005,
        -0.12259200215339661,
        -1.2869240045547485
      ],
      "type": "VEC3"
    },
    {
      "bufferView": 2,
      "byteOffset": 417204,
      "componentType": 5126,
      "count": 32531,
      "max": [
        0.99984675645828247,
        0.99860024452209473,
        0.99990582466125488
      ],
      "min": [
        -0.99984389543533325,
        -0.99957412481307983,
        -0.99816739559173584
      ],
      "type": "VEC3"
    },
    {
      "bufferView": 1,
      "byteOffset": 8944,
      "componentType": 5126,
      "count": 32531,
      "max": [
        1,
        1
      ],
      "min": [
        0,
        0
      ],
      "type": "VEC2"
    },
    {
      "bufferView": 0,
      "byteOffset": 23040,
      "componentType": 5125,
      "count": 49596,
      "max": [
        32530
      ],
      "min": [
        0
      ],
      "type": "SCALAR"
    },
    {
      "bufferView": 2,
      "byteOffset": 807576,
      "componentType": 5126,
      "count": 65534,
      "max": [
        10.776182174682617,
        6.4286971092224121,
        10.256913185119629
      ],
      "min": [
        -10.776182174682617,
        -3.6680428981781006,
        -2.1185109615325928
      ],
      "type": "VEC3"
    },
    {
      "bufferView": 2,
      "byteOffset": 1593984,
      "componentType": 5126,
      "count": 65534,
      "max": [
        0.99997067451477051,
        0.99994111061096191,
        0.99999308586120605
      ],
      "min": [
        -0.99995625019073486,
        -0.99982684850692749,
        -0.99999904632568359
      ],
      "type": "VEC3"
    },
    {
      "bufferView": 1,
      "byteOffset": 269192,
      "componentType": 5126,
      "count": 65534,
      "max": [
        1,
        1
      ],
      "min": [
        0,
        0
      ],
      "type": "VEC2"
    },
    {
      "bufferView": 0,
      "byteOffset": 221424,
      "componentType": 5125,
      "count": 69246,
      "max": [
        65533
      ],
      "min": [
        0
      ],
      "type": "SCALAR"
    },
    {
      "bufferView": 2,
      "byteOffset": 2380392,
      "componentType": 5126,
      "count": 13588,
      "max": [
        10.776182174682617,
        6.3133959770202637,
        10.256913185119629
      ],
      "min": [
        -10.776182174682617,
        -3.6670210361480713,
        -2.0316579341888428
      ],
      "type": "VEC3"
    },
    {
      "bufferView": 2,
      "byteOffset": 2543448,
      "componentType": 5126,
      "count": 13588,
      "max": [
        0.91688764095306396,
        0.99955374002456665,
        0.99995911121368408
      ],
      "min": [
        -0.99997854232788086,
        -0.99887073040008545,
        -0.99952870607376099
      ],
      "type": "VEC3"
    },
    {
      "bufferView": 1,
      "byteOffset": 793464,
      "componentType": 5126,
      "count": 13588,
      "max": [
        0.99645102024078369,
        0.99915599822998047
      ],
      "min": [
        0,
        0.00031100001069717109
      ],
      "type": "VEC2"
    },
    {
      "bufferView": 0,
      "byteOffset": 498408,
      "componentType": 5125,
      "count": 13590,
      "max": [
        13587
      ],
      "min": [
        0
      ],
      "type": "SCALAR"
    },
    {
      "bufferView": 2,
      "byteOffset": 2706504,
      "componentType": 5126,
      "count": 5461,
      "max": [
        0.42681899666786194,
        -2.7625679969787598,
        5.1204590797424316
      ],
      "min": [
        -0.4262160062789917,
        -4.4892001152038574,
        3.96126389503479
      ],
      "type": "VEC3"
    },
    {
      "bufferView": 2,
      "byteOffset": 2772036,
      "componentType": 5126,
      "count": 5461,
      "max": [
        0.9999614953994751,
        0.99962180852890015,
        0.99939656257629395
      ],
      "min": [
        -0.99992406368255615,
        -0.9999992847442627,
        -0.99992179870605469
      ],
      "type": "VEC3"
    },
    {
      "bufferView": 1,
      "byteOffset": 902168,
      "componentType": 5126,
      "count": 5461,
      "max": [
        1,
        1
      ],
      "min": [
        0,
        0
      ],
      "type": "VEC2"
    },
    {
      "bufferView": 0,
      "byteOffset": 552768,
      "componentType": 5125,
      "count": 25860,
      "max": [
        5460
      ],
      "min": [
        0
      ],
      "type": "SCALAR"
    },
    {
      "bufferView": 2,
      "byteOffset": 2837568,
      "componentType": 5126,
      "count": 3364,
      "max": [
        0.3608269989490509,
        -2.526576042175293,
        4.9583249092102051
      ],
      "min": [
        -0.36048400402069092,
        -4.2610569000244141,
        4.2729711532592773
      ],
      "type": "VEC3"
    },
    {
      "bufferView": 2,
      "byteOffset": 2877936,
      "componentType": 5126,
      "count": 3364,
      "max": [
        0.99981099367141724,
        0.98851919174194336,
        0.99997806549072266
      ],
      "min": [
        -0.99979394674301147,
        -0.99863654375076294,
        -0.99945873022079468
      ],
      "type": "VEC3"
    },
    {
      "bufferView": 1,
      "byteOffset": 945856,
      "componentType": 5126,
      "count": 3364,
      "max": [
        1,
        1
      ],
      "min": [
        0,
        0
      ],
      "type": "VEC2"
    },
    {
      "bufferView": 0,
      "byteOffset": 656208,
      "componentType": 5125,
      "count": 17316,
      "max": [
        3363
      ],
      "min": [
        0
      ],
      "type": "SCALAR"
    },
    {
      "bufferView": 2,
      "byteOffset": 2918304,
      "componentType": 5126,
      "count": 33303,
      "max": [
        15.127413749694824,
        1.7547199726104736,
        10.229350090026855
      ],
      "min": [
        -15.127413749694824,
        -1.8663699626922607,
        2.9293169975280762
      ],
      "type": "VEC3"
    },
    {
      "bufferView": 2,
      "byteOffset": 3317940,
      "componentType": 5126,
      "count": 33303,
      "max": [
        0.70368707180023193,
        0.99805146455764771,
        0.47761407494544983
      ],
      "min": [
        -0.70368707180023193,
        -0.99827158451080322,
        -0.48822298645973206
      ],
      "type": "VEC3"
    },
    {
      "bufferView": 1,
      "byteOffset": 972768,
      "componentType": 5126,
      "count": 33303,
      "max": [
        0.61979401111602783,
        1
      ],
      "min": [
        0.38131499290466309,
        0.02377999946475029
      ],
      "type": "VEC2"
    },
    {
      "bufferView": 0,
      "byteOffset": 725472,
      "componentType": 5125,
      "count": 66132,
      "max": [
        33302
      ],
      "min": [
        0
      ],
      "type": "SCALAR"
    }
  ],
  "asset": {
    "extras": {
      "author": "filip.hans.nyberg (https://sketchfab.com/filip.hans.nyberg)",
      "license": "CC-BY-4.0 (http://creativecommons.org/licenses/by/4.0/)",
      "source": "https://sketchfab.com/3d-models/eagle-20-390e4b951de6465191d46aa1b5e1c920",
      "title": "Eagle 2.0"
    },
    "generator": "Sketchfab-8.42.0",
    "version": "2.0"
  },
  "bufferViews": [
    {
      "buffer": 0,
      "byteLength": 990000,
      "byteOffset": 0,
      "name": "floatBufferViews",
      "target": 34963
    },
    {
      "buffer": 0,
      "byteLength": 1239192,
      "byteOffset": 990000,
      "byteStride": 8,
      "name": "floatBufferViews",
      "target": 34962
    },
    {
      "buffer": 0,
      "byteLength": 3717576,
      "byteOffset": 2229192,
      "byteStride": 12,
      "name": "floatBufferViews",
      "target": 34962
    }
  ],
  "buffers": [
    {
      "byteLength": 5946768,
      "uri": "scene.bin"
    }
  ],
  "materials": [
    {
      "doubleSided": true,
      "emissiveFactor": [
        0,
        0,
        0
      ],
      "name": "Eyes",
      "pbrMetallicRoughness": {
        "baseColorFactor": [
          0.75529900000000005,
          0.80000000000000004,
          0.17901300000000001,
          1
        ],
        "metallicFactor": 0,
        "roughnessFactor": 0.80635083268962915
      }
    },
    {
      "doubleSided": true,
      "emissiveFactor": [
        0,
        0,
        0
      ],
      "name": "Feet",
      "pbrMetallicRoughness": {
        "baseColorFactor": [
          0.80000000000000004,
          0.80000000000000004,
          0.80000000000000004,
          1
        ],
        "metallicFactor": 0,
        "roughnessFactor": 0.80635083268962915
      }
    },
    {
      "doubleSided": true,
      "emissiveFactor": [
        0,
        0,
        0
      ],
      "name": "Mainbody",
      "pbrMetallicRoughness": {
        "baseColorFactor": [
          0.80000000000000004,
          0.80000000000000004,
          0.80000000000000004,
          1
        ],
        "metallicFactor": 0,
        "roughnessFactor": 0.80635083268962915
      }
    },
    {
      "doubleSided": true,
      "emissiveFactor": [
        0,
        0,
        0
      ],
      "name": "Nabb",
      "pbrMetallicRoughness": {
        "baseColorFactor": [
          1,
          0.79099200000000003,
          0.026771,
          1
        ],
        "metallicFactor": 0,
        "roughnessFactor": 0.81244169386914444
      }
    },
    {
      "doubleSided": true,
      "emissiveFactor": [
        0,
        0,
        0
      ],
      "name": "Nabb2",
      "pbrMetallicRoughness": {
        "baseColorFactor": [
          0.80000000000000004,
          0.80000000000000004,
          0.80000000000000004,
          1
        ],
        "metallicFactor": 0,
        "roughnessFactor": 0.80635083268962915
      }
    },
    {
      "doubleSided": true,
      "emissiveFactor": [
        0,
        0,
        0
      ],
      "name": "fEATHER1",
      "pbrMetallicRoughness": {
        "baseColorFactor": [
          0.80000000000000004,
          0.80000000000000004,
          0.80000000000000004,
          1
        ],
        "metallicFactor": 0,
        "roughnessFactor": 0.78803183755802242
      }
    }
  ],
  "meshes": [
    {
      "primitives": [
        {
          "attributes": {
            "NORMAL": 1,
            "POSITION": 0,
            "TEXCOORD_0": 2
          },
          "indices": 3,
          "material": 0,
          "mode": 4
        }
      ]
    },
    {
      "primitives": [
        {
          "attributes": {
            "NORMAL": 5,
            "POSITION": 4,
            "TEXCOORD_0": 6
          },
          "indices": 7,
          "material": 1,
          "mode": 4
        }
      ]
    },
    {
      "primitives": [
        {
          "attributes": {
            "NORMAL": 9,
            "POSITION": 8,
            "TEXCOORD_0": 10
          },
          "indices": 11,
          "material": 2,
          "mode": 4
        }
      ]
    },
    {
      "primitives": [
        {
          "attributes": {
            "NORMAL": 13,
            "POSITION": 12,
            "TEXCOORD_0": 14
          },
          "indices": 15,
          "material": 2,
          "mode": 4
        }
      ]
    },
    {
      "primitives": [
        {
          "attributes": {
            "NORMAL": 17,
            "POSITION": 16,
            "TEXCOORD_0": 18
          },
          "indices": 19,
          "material": 3,
          "mode": 4
        }
      ]
    },
    {
      "primitives": [
        {
          "attributes": {
            "NORMAL": 21,
            "POSITION": 20,
            "TEXCOORD_0": 22
          },
          "indices": 23,
          "material": 4,
          "mode": 4
        }
      ]
    },
    {
      "primitives": [
        {
          "attributes": {
            "NORMAL": 25,
            "POSITION": 24,
            "TEXCOORD_0": 26
          },
          "indices": 27,
          "material": 5,
          "mode": 4
        }
      ]
    }
  ],
  "nodes": [
    {
      "children": [
        1
      ],
      "name": "RootNode (gltf orientation matrix)",
      "rotation": [
        -0.70710678118654746,
        -0,
        -0,
        0.70710678118654757
      ]
    },
    {
      "children": [
        2
      ],
      "name": "RootNode (model correction matrix)"
    },
    {
      "children": [
        3,
        4,
        5,
        6,
        7,
        8,
        9
      ],
      "name": "NEW EAGLE.obj.cleaner.materialmerger.gles"
    },
    {
      "mesh": 0,
      "name": ""
    },
    {
      "mesh": 1,
      "name": ""
    },
    {
      "mesh": 2,
      "name": ""
    },
    {
      "mesh": 3,
      "name": ""
    },
    {
      "mesh": 4,
      "name": ""
    },
    {
      "mesh": 5,
      "name": ""
    },
    {
      "mesh": 6,
      "name": ""
    }
  ],
  "scene": 0,
  "scenes": [
    {
      "name": "OSG_Scene",
      "nodes": [
        0
      ]
    }
  ]
}

