{
  "accessors": [
    {
      "bufferView": 2,
      "componentType": 5126,
      "count": 6147,
      "max": [
        0.25477299094200134,
        0.38993498682975769,
        0.039586000144481659
      ],
      "min": [
        -1.3637889623641968,
        -0.028156999498605728,
        -0.70178699493408203
      ],
      "type": "VEC3"
    },
    {
      "bufferView": 2,
      "byteOffset": 73764,
      "componentType": 5126,
      "count": 6147,
      "max": [
        0.99795156717300415,
        0.99999862909317017,
        0.99976521730422974
      ],
      "min": [
        -0.99950611591339111,
        -0.99999964237213135,
        -0.99976521730422974
      ],
      "type": "VEC3"
    },
    {
      "bufferView": 3,
      "componentType": 5126,
      "count": 6147,
      "max": [
        0.99944919347763062,
        0.99965190887451172,
        0.99999982118606567,
        1
      ],
      "min": [
        -0.99991524219512939,
        -0.99972683191299438,
        -0.99999266862869263,
        -1
      ],
      "type": "VEC4"
    },
    {
      "bufferView": 3,
      "byteOffset": 98352,
      "componentType": 5126,
      "count": 6147,
      "max": [
        0.75294119119644165,
        0.75294119119644165,
        0.75294119119644165,
        1
      ],
      "min": [
        0.75294119119644165,
        0.75294119119644165,
        0.75294119119644165,
        1
      ],
      "type": "VEC4"
    },
    {
      "bufferView": 1,
      "componentType": 5126,
      "count": 6147,
      "max": [
        1,
        1
      ],
      "min": [
        0,
        0
      ],
      "type": "VEC2"
    },
    {
      "bufferView": 0,
      "componentType": 5125,
      "count": 23322,
      "max": [
        6146
      ],
      "min": [
        0
      ],
      "type": "SCALAR"
    }
  ],
  "asset": {
    "extras": {
      "author": "SMALR (https://sketchfab.com/SMALR)",
      "license": "CC-BY-NC-SA-4.0 (http://creativecommons.org/licenses/by-nc-sa/4.0/)",
      "source": "https://sketchfab.com/models/d50d61ef119b497094c4b155a6e50570",
      "title": "Cougar A Posed 0096"
    },
    "generator": "Sketchfab-3.21.1",
    "version": "2.0"
  },
  "bufferViews": [
    {
      "buffer": 0,
      "byteLength": 93288,
      "byteOffset": 0,
      "name": "floatBufferViews",
      "target": 34963
    },
    {
      "buffer": 0,
      "byteLength": 49176,
      "byteOffset": 93288,
      "byteStride": 8,
      "name": "floatBufferViews",
      "target": 34962
    },
    {
      "buffer": 0,
      "byteLength": 147528,
      "byteOffset": 142464,
      "byteStride": 12,
      "name": "floatBufferViews",
      "target": 34962
    },
    {
      "buffer": 0,
      "byteLength": 196704,
      "byteOffset": 289992,
      "byteStride": 16,
      "name": "floatBufferViews",
      "target": 34962
    }
  ],
  "buffers": [
    {
      "byteLength": 486696,
      "uri": "scene.bin"
    }
  ],
  "images": [
    {
      "uri": "textures/material_0_baseColor.png"
    }
  ],
  "materials": [
    {
      "doubleSided": true,
      "emissiveFactor": [
        0,
        0,
        0
      ],
      "name": "material_0",
      "pbrMetallicRoughness": {
        "baseColorFactor": [
          1,
          1,
          1,
          1
        ],
        "baseColorTexture": {
          "index": 0,
          "texCoord": 0
        },
        "metallicFactor": 0,
        "roughnessFactor": 1
      }
    }
  ],
  "meshes": [
    {
      "primitives": [
        {
          "attributes": {
            "COLOR_0": 3,
            "NORMAL": 1,
            "POSITION": 0,
            "TANGENT": 2,
            "TEXCOORD_0": 4
          },
          "indices": 5,
          "material": 0,
          "mode": 4
        }
      ]
    }
  ],
  "nodes": [
    {
      "children": [
        1
      ],
      "name": "RootNode (gltf orientation matrix)",
      "rotation": [
        -0.70710678118654746,
        -0,
        -0,
        0.70710678118654757
      ]
    },
    {
      "children": [
        2
      ],
      "name": "RootNode (model correction matrix)"
    },
    {
      "children": [
        3
      ],
      "name": "cougar_A_posed_0096.obj.cleaner.materialmerger.gles"
    },
    {
      "mesh": 0,
      "name": ""
    }
  ],
  "samplers": [
    {
      "magFilter": 9729,
      "minFilter": 9987,
      "wrapS": 10497,
      "wrapT": 10497
    }
  ],
  "scene": 0,
  "scenes": [
    {
      "name": "OSG_Scene",
      "nodes": [
        0
      ]
    }
  ],
  "textures": [
    {
      "sampler": 0,
      "source": 0
    }
  ]
}

