{
  "accessors": [
    {
      "bufferView": 2,
      "componentType": 5126,
      "count": 3047,
      "max": [
        9.3147830963134766,
        36.78515625,
        37.859859466552734
      ],
      "min": [
        -9.3147830963134766,
        -34.75103759765625,
        -29.565677642822266
      ],
      "type": "VEC3"
    },
    {
      "bufferView": 2,
      "byteOffset": 36564,
      "componentType": 5126,
      "count": 3047,
      "max": [
        1,
        1,
        1
      ],
      "min": [
        -1,
        -1,
        -1
      ],
      "type": "VEC3"
    },
    {
      "bufferView": 3,
      "componentType": 5126,
      "count": 3047,
      "max": [
        0.99993741512298584,
        0.99999040365219116,
        0.99995613098144531,
        1
      ],
      "min": [
        -0.99993741512298584,
        -0.99969249963760376,
        -0.99997949600219727,
        -1
      ],
      "type": "VEC4"
    },
    {
      "bufferView": 1,
      "componentType": 5126,
      "count": 3047,
      "max": [
        0.98821228742599487,
        0.98280304670333862
      ],
      "min": [
        0.015275323763489723,
        0.011755403131246567
      ],
      "type": "VEC2"
    },
    {
      "bufferView": 0,
      "componentType": 5125,
      "count": 15288,
      "max": [
        3046
      ],
      "min": [
        0
      ],
      "type": "SCALAR"
    }
  ],
  "asset": {
    "extras": {
      "author": "FennecFyre (https://sketchfab.com/fennecfyre)",
      "license": "CC-BY-NC-4.0 (http://creativecommons.org/licenses/by-nc/4.0/)",
      "source": "https://sketchfab.com/3d-models/pronghorn-a8cb6abfb49841ed97f8480a36c26b3b",
      "title": "Pronghorn"
    },
    "generator": "Sketchfab-6.33.0",
    "version": "2.0"
  },
  "bufferViews": [
    {
      "buffer": 0,
      "byteLength": 61152,
      "byteOffset": 0,
      "name": "floatBufferViews",
      "target": 34963
    },
    {
      "buffer": 0,
      "byteLength": 24376,
      "byteOffset": 61152,
      "byteStride": 8,
      "name": "floatBufferViews",
      "target": 34962
    },
    {
      "buffer": 0,
      "byteLength": 73128,
      "byteOffset": 85528,
      "byteStride": 12,
      "name": "floatBufferViews",
      "target": 34962
    },
    {
      "buffer": 0,
      "byteLength": 48752,
      "byteOffset": 158656,
      "byteStride": 16,
      "name": "floatBufferViews",
      "target": 34962
    }
  ],
  "buffers": [
    {
      "byteLength": 207408,
      "uri": "scene.bin"
    }
  ],
  "images": [
    {
      "uri": "textures/Material_2_baseColor.png"
    }
  ],
  "materials": [
    {
      "doubleSided": true,
      "emissiveFactor": [
        0,
        0,
        0
      ],
      "name": "Material_2",
      "pbrMetallicRoughness": {
        "baseColorFactor": [
          1,
          1,
          1,
          1
        ],
        "baseColorTexture": {
          "index": 0,
          "texCoord": 0
        },
        "metallicFactor": 0,
        "roughnessFactor": 0.89297135964975516
      }
    }
  ],
  "meshes": [
    {
      "name": "Pronghorn_Material #2_0",
      "primitives": [
        {
          "attributes": {
            "NORMAL": 1,
            "POSITION": 0,
            "TANGENT": 2,
            "TEXCOORD_0": 3
          },
          "indices": 4,
          "material": 0,
          "mode": 4
        }
      ]
    }
  ],
  "nodes": [
    {
      "children": [
        1
      ],
      "name": "RootNode (gltf orientation matrix)",
      "rotation": [
        -0.70710678118654746,
        -0,
        -0,
        0.70710678118654757
      ]
    },
    {
      "children": [
        2
      ],
      "name": "RootNode (model correction matrix)"
    },
    {
      "children": [
        3
      ],
      "matrix": [
        1,
        0,
        0,
        0,
        0,
        0,
        1,
        0,
        0,
        -1,
        0,
        0,
        0,
        0,
        0,
        1
      ],
      "name": "pronghorn.FBX"
    },
    {
      "children": [
        4
      ],
      "name": "RootNode"
    },
    {
      "children": [
        5
      ],
      "matrix": [
        1,
        0,
        0,
        0,
        0,
        2.2204460492503131e-16,
        -1,
        0,
        0,
        1,
        2.2204460492503131e-16,
        0,
        0,
        29.565677642822266,
        0,
        1
      ],
      "name": "Pronghorn"
    },
    {
      "mesh": 0,
      "name": "Pronghorn_Material #2_0"
    }
  ],
  "samplers": [
    {
      "magFilter": 9729,
      "minFilter": 9987,
      "wrapS": 10497,
      "wrapT": 10497
    }
  ],
  "scene": 0,
  "scenes": [
    {
      "name": "OSG_Scene",
      "nodes": [
        0
      ]
    }
  ],
  "textures": [
    {
      "sampler": 0,
      "source": 0
    }
  ]
}

