{
  "accessors": [
    {
      "bufferView": 2,
      "componentType": 5126,
      "count": 9102,
      "max": [
        3.7100999355316162,
        15.937600135803223,
        28.392299652099609
      ],
      "min": [
        -3.7100999355316162,
        -26.066900253295898,
        -1.191100001335144
      ],
      "type": "VEC3"
    },
    {
      "bufferView": 2,
      "byteOffset": 109224,
      "componentType": 5126,
      "count": 9102,
      "max": [
        1,
        0.99966424703598022,
        0.99995946884155273
      ],
      "min": [
        -1,
        -1,
        -0.99999904632568359
      ],
      "type": "VEC3"
    },
    {
      "bufferView": 3,
      "componentType": 5126,
      "count": 9102,
      "max": [
        1,
        0.99998795986175537,
        0.99965637922286987,
        1
      ],
      "min": [
        -0.99998337030410767,
        -0.99999994039535522,
        -0.99832653999328613,
        -1
      ],
      "type": "VEC4"
    },
    {
      "bufferView": 1,
      "componentType": 5126,
      "count": 9102,
      "max": [
        0.97979998588562012,
        0.9869999885559082
      ],
      "min": [
        0.012900000438094139,
        0.027699999511241913
      ],
      "type": "VEC2"
    },
    {
      "bufferView": 0,
      "componentType": 5125,
      "count": 48636,
      "max": [
        9101
      ],
      "min": [
        0
      ],
      "type": "SCALAR"
    }
  ],
  "asset": {
    "extras": {
      "author": "gentryhsEAST (https://sketchfab.com/gentryhsEAST)",
      "license": "CC-BY-4.0 (http://creativecommons.org/licenses/by/4.0/)",
      "source": "https://sketchfab.com/models/ff2875fb1a5b4771805a5fd35c8fe7bb",
      "title": "Plain Zebra"
    },
    "generator": "Sketchfab-4.7.0",
    "version": "2.0"
  },
  "bufferViews": [
    {
      "buffer": 0,
      "byteLength": 194544,
      "byteOffset": 0,
      "name": "floatBufferViews",
      "target": 34963
    },
    {
      "buffer": 0,
      "byteLength": 72816,
      "byteOffset": 194544,
      "byteStride": 8,
      "name": "floatBufferViews",
      "target": 34962
    },
    {
      "buffer": 0,
      "byteLength": 218448,
      "byteOffset": 267360,
      "byteStride": 12,
      "name": "floatBufferViews",
      "target": 34962
    },
    {
      "buffer": 0,
      "byteLength": 145632,
      "byteOffset": 485808,
      "byteStride": 16,
      "name": "floatBufferViews",
      "target": 34962
    }
  ],
  "buffers": [
    {
      "byteLength": 631440,
      "uri": "scene.bin"
    }
  ],
  "images": [
    {
      "uri": "textures/Material__0_baseColor.jpeg"
    }
  ],
  "materials": [
    {
      "doubleSided": true,
      "emissiveFactor": [
        0,
        0,
        0
      ],
      "name": "Material__0",
      "pbrMetallicRoughness": {
        "baseColorFactor": [
          1,
          1,
          1,
          1
        ],
        "baseColorTexture": {
          "index": 0,
          "texCoord": 0
        },
        "metallicFactor": 0,
        "roughnessFactor": 0.59999999999999998
      }
    }
  ],
  "meshes": [
    {
      "primitives": [
        {
          "attributes": {
            "NORMAL": 1,
            "POSITION": 0,
            "TANGENT": 2,
            "TEXCOORD_0": 3
          },
          "indices": 4,
          "material": 0,
          "mode": 4
        }
      ]
    }
  ],
  "nodes": [
    {
      "children": [
        1
      ],
      "name": "RootNode (gltf orientation matrix)",
      "rotation": [
        -0.70710678118654746,
        -0,
        -0,
        0.70710678118654757
      ]
    },
    {
      "children": [
        2
      ],
      "name": "RootNode (model correction matrix)"
    },
    {
      "children": [
        3
      ],
      "name": "fjgdgfdghtsrh.obj.cleaner.materialmerger.gles"
    },
    {
      "mesh": 0,
      "name": ""
    }
  ],
  "samplers": [
    {
      "magFilter": 9729,
      "minFilter": 9987,
      "wrapS": 10497,
      "wrapT": 10497
    }
  ],
  "scene": 0,
  "scenes": [
    {
      "name": "OSG_Scene",
      "nodes": [
        0
      ]
    }
  ],
  "textures": [
    {
      "sampler": 0,
      "source": 0
    }
  ]
}

