{
  "accessors": [
    {
      "bufferView": 2,
      "componentType": 5126,
      "count": 496,
      "max": [
        308.41278076171875,
        357.11221313476562,
        1089.2027587890625
      ],
      "min": [
        -285.74148559570312,
        -357.11221313476562,
        -718.25140380859375
      ],
      "type": "VEC3"
    },
    {
      "bufferView": 2,
      "byteOffset": 5952,
      "componentType": 5126,
      "count": 496,
      "max": [
        0.85419297218322754,
        1,
        0.99998742341995239
      ],
      "min": [
        -0.98750400543212891,
        -0.99996256828308105,
        -0.91052824258804321
      ],
      "type": "VEC3"
    },
    {
      "bufferView": 1,
      "componentType": 5126,
      "count": 496,
      "max": [
        1,
        1.0000001192092896
      ],
      "min": [
        0,
        0
      ],
      "type": "VEC2"
    },
    {
      "bufferView": 0,
      "componentType": 5125,
      "count": 792,
      "max": [
        495
      ],
      "min": [
        0
      ],
      "type": "SCALAR"
    },
    {
      "bufferView": 2,
      "byteOffset": 11904,
      "componentType": 5126,
      "count": 252,
      "max": [
        308.41278076171875,
        357.11221313476562,
        909.42364501953125
      ],
      "min": [
        69.930519104003906,
        -357.11221313476562,
        -666.56561279296875
      ],
      "type": "VEC3"
    },
    {
      "bufferView": 2,
      "byteOffset": 14928,
      "componentType": 5126,
      "count": 252,
      "max": [
        0.99998974800109863,
        0.91190385818481445,
        0.96904444694519043
      ],
      "min": [
        -0.094084426760673523,
        -0.91190391778945923,
        -0.80015486478805542
      ],
      "type": "VEC3"
    },
    {
      "bufferView": 1,
      "byteOffset": 3968,
      "componentType": 5126,
      "count": 252,
      "max": [
        1,
        1.0000001192092896
      ],
      "min": [
        0,
        0
      ],
      "type": "VEC2"
    },
    {
      "bufferView": 0,
      "byteOffset": 3168,
      "componentType": 5125,
      "count": 372,
      "max": [
        251
      ],
      "min": [
        0
      ],
      "type": "SCALAR"
    },
    {
      "bufferView": 2,
      "byteOffset": 17952,
      "componentType": 5126,
      "count": 16,
      "max": [
        121.76612854003906,
        77.3714599609375,
        -580.17022705078125
      ],
      "min": [
        98.820564270019531,
        -77.3714599609375,
        -666.56561279296875
      ],
      "type": "VEC3"
    },
    {
      "bufferView": 2,
      "byteOffset": 18144,
      "componentType": 5126,
      "count": 16,
      "max": [
        0.97407722473144531,
        2.9543856726377271e-05,
        -0.037835262715816498
      ],
      "min": [
        -0.99928402900695801,
        -2.9543860364356078e-05,
        -0.22621624171733856
      ],
      "type": "VEC3"
    },
    {
      "bufferView": 1,
      "byteOffset": 5984,
      "componentType": 5126,
      "count": 16,
      "max": [
        0.48841559886932373,
        1
      ],
      "min": [
        0.43527492880821228,
        0.99999994039535522
      ],
      "type": "VEC2"
    },
    {
      "bufferView": 0,
      "byteOffset": 4656,
      "componentType": 5125,
      "count": 24,
      "max": [
        15
      ],
      "min": [
        0
      ],
      "type": "SCALAR"
    },
    {
      "bufferView": 2,
      "byteOffset": 18336,
      "componentType": 5126,
      "count": 1024,
      "max": [
        117.73241424560547,
        54.279823303222656,
        -603.69293212890625
      ],
      "min": [
        98.696937561035156,
        -62.337337493896484,
        -662.0389404296875
      ],
      "type": "VEC3"
    },
    {
      "bufferView": 2,
      "byteOffset": 30624,
      "componentType": 5126,
      "count": 1024,
      "max": [
        0.52866637706756592,
        0.90652191638946533,
        0.84339600801467896
      ],
      "min": [
        -0.99536997079849243,
        -0.90651661157608032,
        -0.92896991968154907
      ],
      "type": "VEC3"
    },
    {
      "bufferView": 1,
      "byteOffset": 6112,
      "componentType": 5126,
      "count": 1024,
      "max": [
        0.99000000953674316,
        0.49000000953674316
      ],
      "min": [
        0.01000000536441803,
        0.01000000536441803
      ],
      "type": "VEC2"
    },
    {
      "bufferView": 0,
      "byteOffset": 4752,
      "componentType": 5125,
      "count": 1488,
      "max": [
        1023
      ],
      "min": [
        0
      ],
      "type": "SCALAR"
    },
    {
      "bufferView": 2,
      "byteOffset": 42912,
      "componentType": 5126,
      "count": 1024,
      "max": [
        124.15671539306641,
        58.808769226074219,
        -600.88690185546875
      ],
      "min": [
        110.01012420654297,
        -57.808376312255859,
        -659.50433349609375
      ],
      "type": "VEC3"
    },
    {
      "bufferView": 2,
      "byteOffset": 55200,
      "componentType": 5126,
      "count": 1024,
      "max": [
        1,
        0.906516432762146,
        0.8903045654296875
      ],
      "min": [
        -0.44515666365623474,
        -0.90651649236679077,
        -0.89030498266220093
      ],
      "type": "VEC3"
    },
    {
      "bufferView": 1,
      "byteOffset": 14304,
      "componentType": 5126,
      "count": 1024,
      "max": [
        0.99000000953674316,
        0.49000000953674316
      ],
      "min": [
        0.01000000536441803,
        0.01000000536441803
      ],
      "type": "VEC2"
    },
    {
      "bufferView": 0,
      "byteOffset": 10704,
      "componentType": 5125,
      "count": 1488,
      "max": [
        1023
      ],
      "min": [
        0
      ],
      "type": "SCALAR"
    }
  ],
  "asset": {
    "extras": {
      "author": "JuanSimon (https://sketchfab.com/JuanSimon)",
      "license": "CC-BY-4.0 (http://creativecommons.org/licenses/by/4.0/)",
      "source": "https://sketchfab.com/3d-models/tiburon-low-poly-de9efa09830a40448af09972470726d7",
      "title": "Tiburón low poly"
    },
    "generator": "Sketchfab-8.47.0",
    "version": "2.0"
  },
  "bufferViews": [
    {
      "buffer": 0,
      "byteLength": 16656,
      "byteOffset": 0,
      "name": "floatBufferViews",
      "target": 34963
    },
    {
      "buffer": 0,
      "byteLength": 22496,
      "byteOffset": 16656,
      "byteStride": 8,
      "name": "floatBufferViews",
      "target": 34962
    },
    {
      "buffer": 0,
      "byteLength": 67488,
      "byteOffset": 39152,
      "byteStride": 12,
      "name": "floatBufferViews",
      "target": 34962
    }
  ],
  "buffers": [
    {
      "byteLength": 106640,
      "uri": "scene.bin"
    }
  ],
  "materials": [
    {
      "doubleSided": true,
      "emissiveFactor": [
        0,
        0,
        0
      ],
      "name": "material",
      "pbrMetallicRoughness": {
        "baseColorFactor": [
          0.047983900000000003,
          0.055468299999999998,
          0.072972099999999998,
          1
        ],
        "metallicFactor": 0,
        "roughnessFactor": 0.35497868728299664
      }
    },
    {
      "doubleSided": true,
      "emissiveFactor": [
        0,
        0,
        0
      ],
      "name": "material_1",
      "pbrMetallicRoughness": {
        "baseColorFactor": [
          0.32989099999999999,
          0.32989099999999999,
          0.32989099999999999,
          1
        ],
        "metallicFactor": 0,
        "roughnessFactor": 0.92623412988346165
      }
    },
    {
      "doubleSided": true,
      "emissiveFactor": [
        0,
        0,
        0
      ],
      "name": "material_2",
      "pbrMetallicRoughness": {
        "baseColorFactor": [
          0.362645,
          0.0072469700000000001,
          0.0127204,
          1
        ],
        "metallicFactor": 0,
        "roughnessFactor": 0.98585626300893359
      }
    },
    {
      "doubleSided": true,
      "emissiveFactor": [
        0,
        0,
        0
      ],
      "name": "dientes.001",
      "pbrMetallicRoughness": {
        "baseColorFactor": [
          1,
          1,
          1,
          1
        ],
        "metallicFactor": 0,
        "roughnessFactor": 0.75505102572168226
      }
    },
    {
      "doubleSided": true,
      "emissiveFactor": [
        0,
        0,
        0
      ],
      "name": "dientes",
      "pbrMetallicRoughness": {
        "baseColorFactor": [
          1,
          1,
          1,
          1
        ],
        "metallicFactor": 0,
        "roughnessFactor": 0.75505102572168226
      }
    }
  ],
  "meshes": [
    {
      "name": "tiburon_1t_0",
      "primitives": [
        {
          "attributes": {
            "NORMAL": 1,
            "POSITION": 0,
            "TEXCOORD_0": 2
          },
          "indices": 3,
          "material": 0,
          "mode": 4
        }
      ]
    },
    {
      "name": "tiburon_2t_0",
      "primitives": [
        {
          "attributes": {
            "NORMAL": 5,
            "POSITION": 4,
            "TEXCOORD_0": 6
          },
          "indices": 7,
          "material": 1,
          "mode": 4
        }
      ]
    },
    {
      "name": "tiburon_3t_0",
      "primitives": [
        {
          "attributes": {
            "NORMAL": 9,
            "POSITION": 8,
            "TEXCOORD_0": 10
          },
          "indices": 11,
          "material": 2,
          "mode": 4
        }
      ]
    },
    {
      "name": "tiburon_dientes.001_0",
      "primitives": [
        {
          "attributes": {
            "NORMAL": 13,
            "POSITION": 12,
            "TEXCOORD_0": 14
          },
          "indices": 15,
          "material": 3,
          "mode": 4
        }
      ]
    },
    {
      "name": "tiburon_dientes_0",
      "primitives": [
        {
          "attributes": {
            "NORMAL": 17,
            "POSITION": 16,
            "TEXCOORD_0": 18
          },
          "indices": 19,
          "material": 4,
          "mode": 4
        }
      ]
    }
  ],
  "nodes": [
    {
      "children": [
        1
      ],
      "name": "RootNode (gltf orientation matrix)",
      "rotation": [
        -0.70710678118654746,
        -0,
        -0,
        0.70710678118654757
      ]
    },
    {
      "children": [
        2
      ],
      "name": "RootNode (model correction matrix)"
    },
    {
      "children": [
        3
      ],
      "matrix": [
        1,
        0,
        0,
        0,
        0,
        0,
        1,
        0,
        0,
        -1,
        0,
        0,
        0,
        0,
        0,
        1
      ],
      "name": "257802b7bcea49b699587641c28da41a.fbx"
    },
    {
      "children": [
        4
      ],
      "name": "RootNode"
    },
    {
      "children": [
        5,
        6,
        7,
        8,
        9
      ],
      "matrix": [
        5.7466668494354733e-08,
        -0.29514405131339472,
        0,
        0,
        0.29514405131339472,
        5.7466668494354733e-08,
        0,
        0,
        0,
        0,
        0.29514405131340027,
        0,
        -0.71102380752563477,
        52.908527374267578,
        6.1621861457824707,
        1
      ],
      "name": "tiburon"
    },
    {
      "mesh": 0,
      "name": "tiburon_1t_0"
    },
    {
      "mesh": 1,
      "name": "tiburon_2t_0"
    },
    {
      "mesh": 2,
      "name": "tiburon_3t_0"
    },
    {
      "mesh": 3,
      "name": "tiburon_dientes.001_0"
    },
    {
      "mesh": 4,
      "name": "tiburon_dientes_0"
    }
  ],
  "scene": 0,
  "scenes": [
    {
      "name": "OSG_Scene",
      "nodes": [
        0
      ]
    }
  ]
}

