{
   "accessors" : [
      {
         "bufferView" : 0,
         "byteOffset" : 0,
         "componentType" : 5123,
         "count" : 2298,
         "max" : [ 1531 ],
         "min" : [ 0 ],
         "name" : "buffer-0-group-0-mesh-0-indices",
         "type" : "SCALAR"
      },
      {
         "bufferView" : 2,
         "byteOffset" : 0,
         "componentType" : 5126,
         "count" : 1532,
         "max" : [ 0.9912340044975281, 5.772130966186523, 2.885814905166626 ],
         "min" : [ -0.9912340044975281, -0.05564599856734276, -0.2960389852523804 ],
         "name" : "buffer-0-group-0-mesh-0-position",
         "type" : "VEC3"
      },
      {
         "bufferView" : 2,
         "byteOffset" : 18384,
         "componentType" : 5126,
         "count" : 1532,
         "max" : [ 0.9988999962806702, 0.9484000205993652, 0.9922999739646912 ],
         "min" : [ -0.9988999962806702, -0.998199999332428, -0.9900000095367432 ],
         "name" : "buffer-0-group-0-mesh-0-normal",
         "type" : "VEC3"
      },
      {
         "bufferView" : 0,
         "byteOffset" : 4596,
         "componentType" : 5123,
         "count" : 2364,
         "max" : [ 1369 ],
         "min" : [ 0 ],
         "name" : "buffer-0-group-1-mesh-0-indices",
         "type" : "SCALAR"
      },
      {
         "bufferView" : 2,
         "byteOffset" : 36768,
         "componentType" : 5126,
         "count" : 1370,
         "max" : [ 0.9590740203857422, 5.619034767150879, 0.8657400012016296 ],
         "min" : [ 0, 0, 0 ],
         "name" : "buffer-0-group-1-mesh-0-position",
         "type" : "VEC3"
      },
      {
         "bufferView" : 2,
         "byteOffset" : 53208,
         "componentType" : 5126,
         "count" : 1370,
         "max" : [ 0.996999979019165, 0.9991000294685364, 0.9797999858856201 ],
         "min" : [ -0.996999979019165, -0.9991000294685364, -0.9797999858856201 ],
         "name" : "buffer-0-group-1-mesh-0-normal",
         "type" : "VEC3"
      },
      {
         "bufferView" : 0,
         "byteOffset" : 9324,
         "componentType" : 5123,
         "count" : 120,
         "max" : [ 79 ],
         "min" : [ 0 ],
         "name" : "buffer-0-group-2-mesh-0-indices",
         "type" : "SCALAR"
      },
      {
         "bufferView" : 2,
         "byteOffset" : 69648,
         "componentType" : 5126,
         "count" : 80,
         "max" : [ 0.8181210160255432, 5.670849800109863, 1.160130023956299 ],
         "min" : [ 0, 0, 0 ],
         "name" : "buffer-0-group-2-mesh-0-position",
         "type" : "VEC3"
      },
      {
         "bufferView" : 2,
         "byteOffset" : 70608,
         "componentType" : 5126,
         "count" : 80,
         "max" : [ 0.9269999861717224, 0.9207000136375427, 0.8996999859809875 ],
         "min" : [ -0.8777999877929688, -0.6302000284194946, -0.9093999862670898 ],
         "name" : "buffer-0-group-2-mesh-0-normal",
         "type" : "VEC3"
      }
   ],
   "asset" : {
      "generator" : "Obj2GltfConverter",
      "version" : "2.0"
   },
   "bufferViews" : [
      {
         "buffer" : 0,
         "byteLength" : 9564,
         "byteOffset" : 0,
         "byteStride" : 0,
         "name" : "buffer-0-bufferview-ushort",
         "target" : 34963
      },
      {
         "buffer" : 0,
         "byteLength" : 1,
         "byteOffset" : 0,
         "name" : "buffer-0-bufferview-vec2"
      },
      {
         "buffer" : 0,
         "byteLength" : 71568,
         "byteOffset" : 9564,
         "byteStride" : 12,
         "name" : "buffer-0-bufferview-vec3",
         "target" : 34962
      },
      {
         "buffer" : 0,
         "byteLength" : 1,
         "byteOffset" : 0,
         "name" : "buffer-0-bufferview-vec4"
      }
   ],
   "buffers" : [
      {
         "byteLength" : 81132,
         "name" : "buffer-0",
         "uri" : "bear_animation.bin"
      }
   ],
   "materials" : [
      {
         "alphaMode" : "OPAQUE",
         "doubleSided" : true,
         "name" : "Material",
         "pbrMetallicRoughness" : {
            "baseColorFactor" : [ 0.64, 0.64, 0.64, 1 ],
            "metallicFactor" : 0,
            "roughnessFactor" : 0.7448017359246658
         }
      },
      {
         "alphaMode" : "OPAQUE",
         "doubleSided" : true,
         "name" : "Material.001",
         "pbrMetallicRoughness" : {
            "baseColorFactor" : [ 0.025136, 0.025136, 0.025136, 1 ],
            "metallicFactor" : 0,
            "roughnessFactor" : 0.7448017359246658
         }
      },
      {
         "alphaMode" : "OPAQUE",
         "doubleSided" : true,
         "name" : "Material.002",
         "pbrMetallicRoughness" : {
            "baseColorFactor" : [ 0.64, 0.64, 0.64, 1 ],
            "metallicFactor" : 0,
            "roughnessFactor" : 0.7448017359246658
         }
      }
   ],
   "meshes" : [
      {
         "name" : "buffer-0-mesh-0",
         "primitives" : [
            {
               "attributes" : {
                  "NORMAL" : 2,
                  "POSITION" : 1
               },
               "indices" : 0,
               "material" : 0,
               "mode" : 4
            },
            {
               "attributes" : {
                  "NORMAL" : 5,
                  "POSITION" : 4
               },
               "indices" : 3,
               "material" : 1,
               "mode" : 4
            },
            {
               "attributes" : {
                  "NORMAL" : 8,
                  "POSITION" : 7
               },
               "indices" : 6,
               "material" : 2,
               "mode" : 4
            }
         ]
      }
   ],
   "nodes" : [
      {
         "mesh" : 0,
         "name" : "node-0"
      }
   ],
   "scenes" : [
      {
         "name" : "scene-0",
         "nodes" : [ 0 ]
      }
   ]
}
