{
  "accessors": [
    {
      "bufferView": 3,
      "componentType": 5126,
      "count": 2100,
      "max": [
        0.34246999025344849,
        0.95061999559402466,
        0.68118000030517578
      ],
      "min": [
        -0.34246999025344849,
        -1.3405500650405884,
        -1.1721400022506714
      ],
      "type": "VEC3"
    },
    {
      "bufferView": 3,
      "byteOffset": 25200,
      "componentType": 5126,
      "count": 2100,
      "max": [
        0.99997085332870483,
        0.99960654973983765,
        0.99999994039535522
      ],
      "min": [
        -0.99997085332870483,
        -0.99993896484375,
        -0.99999767541885376
      ],
      "type": "VEC3"
    },
    {
      "bufferView": 4,
      "componentType": 5126,
      "count": 2100,
      "max": [
        0.99978804588317871,
        1,
        0.99176257848739624,
        1
      ],
      "min": [
        -0.99978798627853394,
        -0.78530758619308472,
        -0.99993896484375,
        -1
      ],
      "type": "VEC4"
    },
    {
      "bufferView": 3,
      "byteOffset": 50400,
      "componentType": 5126,
      "count": 2100,
      "max": [
        1,
        1,
        1
      ],
      "min": [
        0.28235295414924622,
        0.21960784494876862,
        0.10588235408067703
      ],
      "type": "VEC3"
    },
    {
      "bufferView": 2,
      "componentType": 5126,
      "count": 2100,
      "max": [
        0.82055997848510742,
        0.883899986743927
      ],
      "min": [
        0.11123000085353851,
        0.040950000286102295
      ],
      "type": "VEC2"
    },
    {
      "bufferView": 1,
      "componentType": 5125,
      "count": 11208,
      "max": [
        2099
      ],
      "min": [
        0
      ],
      "type": "SCALAR"
    },
    {
      "bufferView": 5,
      "componentType": 5126,
      "count": 27,
      "max": [
        1,
        0.12135999649763107,
        0.13806000351905823,
        0,
        0.090039998292922974,
        1,
        0.99713999032974243,
        0,
        0.12278000265359879,
        0.96341997385025024,
        1,
        0,
        0.2445099949836731,
        0.078720003366470337,
        1.1043100357055664,
        1
      ],
      "min": [
        -1,
        -0.12135999649763107,
        -0.13806000351905823,
        0,
        -0.090039998292922974,
        -0.99994999170303345,
        -0.98875999450683594,
        0,
        -0.12278000265359879,
        -0.9972500205039978,
        -0.99443000555038452,
        0,
        -0.2445099949836731,
        -1.1053199768066406,
        -0.85361999273300171,
        1
      ],
      "type": "MAT4"
    },
    {
      "bufferView": 0,
      "componentType": 5123,
      "count": 2100,
      "max": [
        26,
        26,
        24,
        24
      ],
      "min": [
        1,
        1,
        1,
        14
      ],
      "type": "VEC4"
    },
    {
      "bufferView": 4,
      "byteOffset": 33600,
      "componentType": 5126,
      "count": 2100,
      "max": [
        1,
        0.5,
        0.3333333432674408,
        0.20000000298023224
      ],
      "min": [
        0.3333333432674408,
        0,
        0,
        0
      ],
      "type": "VEC4"
    }
  ],
  "asset": {
    "extras": {
      "author": "LynxAbraxas (https://sketchfab.com/LynxAbraxas)",
      "license": "CC-BY-4.0 (http://creativecommons.org/licenses/by/4.0/)",
      "source": "https://sketchfab.com/3d-models/camel-794fd9fe9d224bb9ba8ddae8a499321e",
      "title": "Camel"
    },
    "generator": "Sketchfab-4.97.2",
    "version": "2.0"
  },
  "bufferViews": [
    {
      "buffer": 0,
      "byteLength": 16800,
      "byteOffset": 0,
      "byteStride": 8,
      "name": "shortBufferViews",
      "target": 34962
    },
    {
      "buffer": 0,
      "byteLength": 44832,
      "byteOffset": 16800,
      "name": "floatBufferViews",
      "target": 34963
    },
    {
      "buffer": 0,
      "byteLength": 16800,
      "byteOffset": 61632,
      "byteStride": 8,
      "name": "floatBufferViews",
      "target": 34962
    },
    {
      "buffer": 0,
      "byteLength": 75600,
      "byteOffset": 78432,
      "byteStride": 12,
      "name": "floatBufferViews",
      "target": 34962
    },
    {
      "buffer": 0,
      "byteLength": 67200,
      "byteOffset": 154032,
      "byteStride": 16,
      "name": "floatBufferViews",
      "target": 34962
    },
    {
      "buffer": 0,
      "byteLength": 1728,
      "byteOffset": 221232,
      "byteStride": 64,
      "name": "floatBufferViews"
    }
  ],
  "buffers": [
    {
      "byteLength": 222960,
      "uri": "scene.bin"
    }
  ],
  "images": [
    {
      "uri": "textures/Camel_baseColor.jpeg"
    }
  ],
  "materials": [
    {
      "doubleSided": true,
      "emissiveFactor": [
        0,
        0,
        0
      ],
      "name": "Camel",
      "pbrMetallicRoughness": {
        "baseColorFactor": [
          1,
          1,
          1,
          1
        ],
        "baseColorTexture": {
          "index": 0,
          "texCoord": 0
        },
        "metallicFactor": 0,
        "roughnessFactor": 0.59999999999999998
      }
    }
  ],
  "meshes": [
    {
      "name": "Camel",
      "primitives": [
        {
          "attributes": {
            "COLOR_0": 3,
            "JOINTS_0": 7,
            "NORMAL": 1,
            "POSITION": 0,
            "TANGENT": 2,
            "TEXCOORD_0": 4,
            "WEIGHTS_0": 8
          },
          "indices": 5,
          "material": 0,
          "mode": 4
        }
      ]
    }
  ],
  "nodes": [
    {
      "children": [
        1
      ],
      "name": "RootNode (gltf orientation matrix)",
      "rotation": [
        -0.70710678118654746,
        -0,
        -0,
        0.70710678118654757
      ]
    },
    {
      "children": [
        2
      ],
      "name": "RootNode (model correction matrix)"
    },
    {
      "children": [
        3,
        5,
        7
      ],
      "name": "Root"
    },
    {
      "children": [
        4
      ],
      "matrix": [
        -0.54895000000000005,
        0.61525000000000007,
        0.56579000000000013,
        0,
        -0.31881000000000009,
        -0.77985000000000004,
        0.53870000000000007,
        0,
        0.77267000000000008,
        0.11534000000000001,
        0.62425000000000008,
        0,
        9.5301399999999994,
        1.4149599999999998,
        8.7526400000000013,
        1
      ],
      "name": "Sun"
    },
    {
      "name": "Sun"
    },
    {
      "children": [
        6
      ],
      "matrix": [
        1,
        0,
        0,
        0,
        0,
        1,
        0,
        0,
        0,
        0,
        1,
        0,
        2.4950199999999998,
        1.6810100000000001,
        10.891349999999999,
        1
      ],
      "name": "Hemi"
    },
    {
      "name": "Hemi"
    },
    {
      "children": [
        8,
        36,
        35
      ],
      "matrix": [
        1,
        0,
        0,
        0,
        0,
        1,
        0,
        0,
        0,
        0,
        1,
        0,
        0,
        -0.098109997808933258,
        1.1721400022506714,
        1
      ],
      "name": "Armature"
    },
    {
      "children": [
        9,
        18,
        19,
        20,
        21,
        32,
        33,
        34
      ],
      "name": "Armature_rootJoint"
    },
    {
      "children": [
        10,
        12,
        15
      ],
      "name": "Body_front_Armature",
      "rotation": [
        0.99860519170761108,
        0,
        0,
        -0.052798885852098465
      ],
      "scale": [
        1,
        0.99999541044235229,
        0.99999541044235229
      ],
      "translation": [
        0,
        0,
        0
      ]
    },
    {
      "children": [
        11
      ],
      "name": "Neck01_Armature",
      "rotation": [
        0,
        0.99994218349456787,
        -0.010755607858300209,
        0
      ],
      "scale": [
        1,
        1.0000013113021851,
        1.0000013113021851
      ],
      "translation": [
        0,
        0.61405998468399048,
        0
      ]
    },
    {
      "name": "Neck02_Armature",
      "rotation": [
        0.63792628049850464,
        0,
        0,
        0.77009743452072144
      ],
      "scale": [
        1,
        0.99999922513961792,
        0.99999922513961792
      ],
      "translation": [
        0,
        0.23962999880313873,
        0
      ]
    },
    {
      "children": [
        13
      ],
      "name": "Upper_arm.L_Armature",
      "rotation": [
        0.62579977512359619,
        0,
        0,
        0.77998387813568115
      ],
      "scale": [
        1,
        1.0000027418136597,
        1.0000027418136597
      ],
      "translation": [
        0.20000000298023224,
        0.41424000263214111,
        0.010080000385642052
      ]
    },
    {
      "children": [
        14
      ],
      "name": "Fore_arm.L_Armature",
      "rotation": [
        0.13855527341365814,
        0.03114699013531208,
        0.023239051923155785,
        0.98959207534790039
      ],
      "scale": [
        1.0000053644180298,
        0.99999302625656128,
        0.99999219179153442
      ],
      "translation": [
        0,
        0.31977000832557678,
        0
      ]
    },
    {
      "name": "Palm.L_Armature",
      "rotation": [
        0.011680776253342628,
        0.9877437949180603,
        -0.15511642396450043,
        0.012839971110224724
      ],
      "scale": [
        1.0000038146972656,
        0.99999463558197021,
        1.000001072883606
      ],
      "translation": [
        0,
        0.33610999584197998,
        0
      ]
    },
    {
      "children": [
        16
      ],
      "name": "Upper_arm.R_Armature",
      "rotation": [
        0.62579977512359619,
        0,
        0,
        0.77998387813568115
      ],
      "scale": [
        1,
        1.0000027418136597,
        1.0000027418136597
      ],
      "translation": [
        -0.20000000298023224,
        0.41424000263214111,
        0.010080000385642052
      ]
    },
    {
      "children": [
        17
      ],
      "name": "Fore_arm.R_Armature",
      "rotation": [
        0.13855527341365814,
        -0.03114699013531208,
        -0.023239051923155785,
        0.98959207534790039
      ],
      "scale": [
        1.0000053644180298,
        0.99999302625656128,
        0.99999219179153442
      ],
      "translation": [
        0,
        0.31977000832557678,
        0
      ]
    },
    {
      "name": "Palm.R_Armature",
      "rotation": [
        -0.011680776253342628,
        0.9877437949180603,
        -0.15511642396450043,
        -0.012839971110224724
      ],
      "scale": [
        1.0000038146972656,
        0.99999463558197021,
        1.000001072883606
      ],
      "translation": [
        0,
        0.33610999584197998,
        0
      ]
    },
    {
      "name": "Head_Armature",
      "rotation": [
        -4.9985706027655397e-06,
        -0.0049012210220098495,
        0.99998807907104492,
        -1.2496439646958457e-11
      ],
      "scale": [
        1,
        0.99999803304672241,
        1.0005481243133545
      ],
      "translation": [
        0,
        -0.95586001873016357,
        0.29774001240730286
      ]
    },
    {
      "name": "Finger.L_Armature",
      "rotation": [
        0.0048864441923797131,
        -0.55746430158615112,
        0.8301423192024231,
        0.0085795652121305466
      ],
      "scale": [
        1.0000073909759521,
        1.000003457069397,
        0.99999576807022095
      ],
      "translation": [
        0.17802000045776367,
        -0.43764001131057739,
        -1.0192199945449829
      ]
    },
    {
      "name": "Finger.R_Armature",
      "rotation": [
        -0.0048864441923797131,
        -0.55746430158615112,
        0.8301423192024231,
        -0.0085795652121305466
      ],
      "scale": [
        1.0000073909759521,
        1.000003457069397,
        0.99999576807022095
      ],
      "translation": [
        -0.17802000045776367,
        -0.43764001131057739,
        -1.0192199945449829
      ]
    },
    {
      "children": [
        22,
        26,
        29
      ],
      "name": "Body_back_Armature",
      "rotation": [
        0.13365454971790314,
        -0.00010854048741748556,
        -1.5199579138425179e-05,
        0.99102795124053955
      ],
      "scale": [
        1.0000005960464478,
        0.99999642372131348,
        0.99999696016311646
      ],
      "translation": [
        0,
        0,
        0
      ]
    },
    {
      "children": [
        23
      ],
      "name": "Tail01_Armature",
      "rotation": [
        -0.23822964727878571,
        0.001021695788949728,
        -0.00019827367214020342,
        0.97120839357376099
      ],
      "scale": [
        1.0000028610229492,
        0.99999594688415527,
        0.99999845027923584
      ],
      "translation": [
        0,
        0.6196100115776062,
        0
      ]
    },
    {
      "children": [
        24
      ],
      "name": "Tail02_Armature",
      "rotation": [
        -0.43029439449310303,
        0.00011855390766868368,
        -0.00086438300786539912,
        0.90268820524215698
      ],
      "scale": [
        1.0000026226043701,
        0.9999956488609314,
        0.99999469518661499
      ],
      "translation": [
        0,
        0.17995999753475189,
        0
      ]
    },
    {
      "children": [
        25
      ],
      "name": "Tail03_Armature",
      "rotation": [
        -0.19569262862205505,
        0.0059478324837982655,
        -0.0016057412140071392,
        0.98064595460891724
      ],
      "scale": [
        0.9999927282333374,
        0.99999779462814331,
        1.0000035762786865
      ],
      "translation": [
        0,
        0.1904900074005127,
        0
      ]
    },
    {
      "name": "Tail04_Armature",
      "rotation": [
        0.047989249229431152,
        -0.012770749628543854,
        7.2650778747629374e-05,
        0.99876618385314941
      ],
      "scale": [
        0.99999493360519409,
        0.99999547004699707,
        1.0000039339065552
      ],
      "translation": [
        0,
        0.18076999485492706,
        0
      ]
    },
    {
      "children": [
        27
      ],
      "name": "Upper_leg.L_Armature",
      "rotation": [
        -0.76338541507720947,
        -0.050862614065408707,
        -0.033812478184700012,
        0.64304935932159424
      ],
      "scale": [
        1.0000016689300537,
        0.99999833106994629,
        1.0000027418136597
      ],
      "translation": [
        0.12411999702453613,
        0.62119001150131226,
        -0.010710000060498714
      ]
    },
    {
      "children": [
        28
      ],
      "name": "Fore_leg.L_Armature",
      "rotation": [
        0.19698670506477356,
        0.080155268311500549,
        0.10336904972791672,
        0.97164100408554077
      ],
      "scale": [
        1.0000033378601074,
        0.99999445676803589,
        0.99999719858169556
      ],
      "translation": [
        0,
        0.41920000314712524,
        0
      ]
    },
    {
      "name": "Foot.L_Armature",
      "rotation": [
        0.061871659010648727,
        0.93645006418228149,
        -0.34318158030509949,
        0.038205042481422424
      ],
      "scale": [
        0.99999308586120605,
        1.0000048875808716,
        0.99999761581420898
      ],
      "translation": [
        0,
        0.41762998700141907,
        0
      ]
    },
    {
      "children": [
        30
      ],
      "name": "Upper_leg.R_Armature",
      "rotation": [
        -0.76337707042694092,
        0.051001965999603271,
        0.033979970961809158,
        0.64303934574127197
      ],
      "scale": [
        1.000004768371582,
        1.0000039339065552,
        0.99999696016311646
      ],
      "translation": [
        -0.1241300031542778,
        0.62119001150131226,
        -0.010660000145435333
      ]
    },
    {
      "children": [
        31
      ],
      "name": "Fore_leg.R_Armature",
      "rotation": [
        0.19698670506477356,
        -0.080155268311500549,
        -0.10336904972791672,
        0.97164100408554077
      ],
      "scale": [
        1.0000033378601074,
        0.99999445676803589,
        0.99999719858169556
      ],
      "translation": [
        0,
        0.41920000314712524,
        0
      ]
    },
    {
      "name": "Foot.R_Armature",
      "rotation": [
        -0.061871659010648727,
        0.93645006418228149,
        -0.34318158030509949,
        -0.038205042481422424
      ],
      "scale": [
        0.99999308586120605,
        1.0000048875808716,
        0.99999761581420898
      ],
      "translation": [
        0,
        0.41762998700141907,
        0
      ]
    },
    {
      "name": "Tail05_Armature",
      "rotation": [
        -0.54824960231781006,
        -0.0017931314650923014,
        0.001175305456854403,
        0.83631199598312378
      ],
      "scale": [
        0.99999642372131348,
        0.99999970197677612,
        1.0000021457672119
      ],
      "translation": [
        0,
        0.89494001865386963,
        -0.3533099889755249
      ]
    },
    {
      "name": "Toe.L_Armature",
      "rotation": [
        -0.016379931941628456,
        -0.5507044792175293,
        0.83453863859176636,
        -0.0012274542823433876
      ],
      "scale": [
        1.0000013113021851,
        1.0000052452087402,
        0.9999966025352478
      ],
      "translation": [
        0.1496800035238266,
        0.76656997203826904,
        -1.0073100328445435
      ]
    },
    {
      "name": "Toe.R_Armature",
      "rotation": [
        0.016379931941628456,
        -0.5507044792175293,
        0.83453863859176636,
        0.0012274542823433876
      ],
      "scale": [
        1.0000013113021851,
        1.0000052452087402,
        0.9999966025352478
      ],
      "translation": [
        -0.1496800035238266,
        0.76656997203826904,
        -1.0073100328445435
      ]
    },
    {
      "matrix": [
        1,
        0,
        0,
        0,
        0,
        1,
        0,
        0,
        0,
        0,
        1,
        0,
        0,
        0.098110000000000031,
        -1.1721400000000002,
        1
      ],
      "name": "Camel"
    },
    {
      "mesh": 0,
      "name": "Camel_0",
      "skin": 0
    }
  ],
  "samplers": [
    {
      "magFilter": 9729,
      "minFilter": 9987,
      "wrapS": 10497,
      "wrapT": 10497
    }
  ],
  "scene": 0,
  "scenes": [
    {
      "name": "OSG_Scene",
      "nodes": [
        0
      ]
    }
  ],
  "skins": [
    {
      "inverseBindMatrices": 6,
      "joints": [
        8,
        9,
        10,
        11,
        12,
        13,
        14,
        15,
        16,
        17,
        18,
        19,
        20,
        21,
        22,
        23,
        24,
        25,
        26,
        27,
        28,
        29,
        30,
        31,
        32,
        33,
        34
      ],
      "skeleton": 8
    }
  ],
  "textures": [
    {
      "sampler": 0,
      "source": 0
    }
  ]
}

