{
  "accessors": [
    {
      "bufferView": 2,
      "componentType": 5126,
      "count": 23146,
      "max": [
        1.7113417387008667,
        1.1638376712799072,
        5.023587703704834
      ],
      "min": [
        -1.7113417387008667,
        -2.7918169498443604,
        -1.1681462526321411
      ],
      "type": "VEC3"
    },
    {
      "bufferView": 2,
      "byteOffset": 277752,
      "componentType": 5126,
      "count": 23146,
      "max": [
        0.99998795986175537,
        0.99998641014099121,
        0.99999713897705078
      ],
      "min": [
        -0.99998795986175537,
        -0.99998068809509277,
        -0.9999006986618042
      ],
      "type": "VEC3"
    },
    {
      "bufferView": 3,
      "componentType": 5126,
      "count": 23146,
      "max": [
        1,
        0.99993312358856201,
        0.99988949298858643,
        1
      ],
      "min": [
        -1,
        -0.99965924024581909,
        -0.99970513582229614,
        1
      ],
      "type": "VEC4"
    },
    {
      "bufferView": 1,
      "componentType": 5126,
      "count": 23146,
      "max": [
        0.97220659255981445,
        0.99962925910949707
      ],
      "min": [
        0.00037078300374560058,
        0.00037078300374560058
      ],
      "type": "VEC2"
    },
    {
      "bufferView": 1,
      "byteOffset": 185168,
      "componentType": 5126,
      "count": 23146,
      "max": [
        0.97220659255981445,
        0.99962925910949707
      ],
      "min": [
        0.00037078300374560058,
        0.00037078300374560058
      ],
      "type": "VEC2"
    },
    {
      "bufferView": 1,
      "byteOffset": 370336,
      "componentType": 5126,
      "count": 23146,
      "max": [
        0.97220659255981445,
        0.99962925910949707
      ],
      "min": [
        0.00037078300374560058,
        0.00037078300374560058
      ],
      "type": "VEC2"
    },
    {
      "bufferView": 0,
      "componentType": 5125,
      "count": 127224,
      "max": [
        23145
      ],
      "min": [
        0
      ],
      "type": "SCALAR"
    },
    {
      "bufferView": 2,
      "byteOffset": 555504,
      "componentType": 5126,
      "count": 3968,
      "max": [
        0.27559715509414673,
        -1.662276029586792,
        4.1484508514404297
      ],
      "min": [
        -0.27559715509414673,
        -1.8179099559783936,
        3.9929351806640625
      ],
      "type": "VEC3"
    },
    {
      "bufferView": 2,
      "byteOffset": 603120,
      "componentType": 5126,
      "count": 3968,
      "max": [
        0.99690943956375122,
        0.99762809276580811,
        0.9950488805770874
      ],
      "min": [
        -0.996909499168396,
        -0.99763107299804688,
        -0.99504554271697998
      ],
      "type": "VEC3"
    },
    {
      "bufferView": 1,
      "byteOffset": 555504,
      "componentType": 5126,
      "count": 3968,
      "max": [
        1.0000002384185791,
        1
      ],
      "min": [
        0,
        0
      ],
      "type": "VEC2"
    },
    {
      "bufferView": 0,
      "byteOffset": 508896,
      "componentType": 5125,
      "count": 5760,
      "max": [
        3967
      ],
      "min": [
        0
      ],
      "type": "SCALAR"
    }
  ],
  "asset": {
    "extras": {
      "author": "filip.hans.nyberg (https://sketchfab.com/filip.hans.nyberg)",
      "license": "CC-BY-4.0 (http://creativecommons.org/licenses/by/4.0/)",
      "source": "https://sketchfab.com/3d-models/free-gorilla-ad28003205884841a028e80edb4089ef",
      "title": "Free Gorilla"
    },
    "generator": "Sketchfab-8.40.0",
    "version": "2.0"
  },
  "bufferViews": [
    {
      "buffer": 0,
      "byteLength": 531936,
      "byteOffset": 0,
      "name": "floatBufferViews",
      "target": 34963
    },
    {
      "buffer": 0,
      "byteLength": 587248,
      "byteOffset": 531936,
      "byteStride": 8,
      "name": "floatBufferViews",
      "target": 34962
    },
    {
      "buffer": 0,
      "byteLength": 650736,
      "byteOffset": 1119184,
      "byteStride": 12,
      "name": "floatBufferViews",
      "target": 34962
    },
    {
      "buffer": 0,
      "byteLength": 370336,
      "byteOffset": 1769920,
      "byteStride": 16,
      "name": "floatBufferViews",
      "target": 34962
    }
  ],
  "buffers": [
    {
      "byteLength": 2140256,
      "uri": "scene.bin"
    }
  ],
  "images": [
    {
      "uri": "textures/Gorilla_baseColor.png"
    },
    {
      "uri": "textures/Gorilla_metallicRoughness.png"
    },
    {
      "uri": "textures/Gorilla_normal.png"
    }
  ],
  "materials": [
    {
      "doubleSided": true,
      "emissiveFactor": [
        0,
        0,
        0
      ],
      "name": "Gorilla",
      "normalTexture": {
        "index": 2,
        "scale": 1,
        "texCoord": 0
      },
      "pbrMetallicRoughness": {
        "baseColorFactor": [
          1,
          1,
          1,
          1
        ],
        "baseColorTexture": {
          "index": 0,
          "texCoord": 0
        },
        "metallicFactor": 1,
        "metallicRoughnessTexture": {
          "index": 1,
          "texCoord": 0
        },
        "roughnessFactor": 1
      }
    },
    {
      "doubleSided": true,
      "emissiveFactor": [
        0,
        0,
        0
      ],
      "name": "Material.001",
      "pbrMetallicRoughness": {
        "baseColorFactor": [
          0,
          0,
          0,
          1
        ],
        "metallicFactor": 0,
        "roughnessFactor": 1
      }
    }
  ],
  "meshes": [
    {
      "name": "Cylinder.002_Gorilla_0",
      "primitives": [
        {
          "attributes": {
            "NORMAL": 1,
            "POSITION": 0,
            "TANGENT": 2,
            "TEXCOORD_0": 3,
            "TEXCOORD_1": 4,
            "TEXCOORD_2": 5
          },
          "indices": 6,
          "material": 0,
          "mode": 4
        }
      ]
    },
    {
      "name": "Sphere.001_Material.001_0",
      "primitives": [
        {
          "attributes": {
            "NORMAL": 8,
            "POSITION": 7,
            "TEXCOORD_0": 9
          },
          "indices": 10,
          "material": 1,
          "mode": 4
        }
      ]
    }
  ],
  "nodes": [
    {
      "children": [
        1
      ],
      "name": "RootNode (gltf orientation matrix)",
      "rotation": [
        -0.70710678118654746,
        -0,
        -0,
        0.70710678118654757
      ]
    },
    {
      "children": [
        2
      ],
      "name": "RootNode (model correction matrix)"
    },
    {
      "children": [
        3
      ],
      "matrix": [
        1,
        0,
        0,
        0,
        0,
        0,
        1,
        0,
        0,
        -1,
        0,
        0,
        0,
        0,
        0,
        1
      ],
      "name": "GORILLA.fbx"
    },
    {
      "children": [
        4,
        6
      ],
      "name": "RootNode"
    },
    {
      "children": [
        5
      ],
      "matrix": [
        100,
        0,
        0,
        0,
        0,
        -1.6292067939183141e-05,
        -99.999999999998678,
        0,
        0,
        99.999999999998678,
        -1.6292067939183141e-05,
        0,
        0,
        0,
        0,
        1
      ],
      "name": "Cylinder.002"
    },
    {
      "mesh": 0,
      "name": "Cylinder.002_Gorilla_0"
    },
    {
      "children": [
        7
      ],
      "matrix": [
        100,
        0,
        0,
        0,
        -0,
        -1.6292067939183141e-05,
        -99.999999999998678,
        0,
        0,
        99.999999999998678,
        -1.6292067939183141e-05,
        0,
        -3.0297862950495931e-16,
        4.379605770111084,
        7.3472766876220703,
        1
      ],
      "name": "Sphere.001"
    },
    {
      "mesh": 1,
      "name": "Sphere.001_Material.001_0"
    }
  ],
  "samplers": [
    {
      "magFilter": 9729,
      "minFilter": 9987,
      "wrapS": 10497,
      "wrapT": 10497
    }
  ],
  "scene": 0,
  "scenes": [
    {
      "name": "OSG_Scene",
      "nodes": [
        0
      ]
    }
  ],
  "textures": [
    {
      "sampler": 0,
      "source": 0
    },
    {
      "sampler": 0,
      "source": 1
    },
    {
      "sampler": 0,
      "source": 2
    }
  ]
}

